<?xml version="1.0" encoding="utf-8"?>
<!-- Generator: Adobe Illustrator 23.0.0, SVG Export Plug-In . SVG Version: 6.00 Build 0)  -->
<svg version="1.1" id="Layer_1" xmlns="http://www.w3.org/2000/svg" xmlns:xlink="http://www.w3.org/1999/xlink" x="0px" y="0px"
	 viewBox="0 0 1121 851.8" style="enable-background:new 0 0 1121 851.8;" xml:space="preserve">
<style type="text/css">
	
		.st0{opacity:0.3;fill:none;stroke:#000000;stroke-width:0.75;stroke-miterlimit:10;stroke-dasharray:12;enable-background:new    ;}
	.st1{opacity:0.9;fill:#89C342;enable-background:new    ;}
	.st2{fill:#92E3A9;}
	.st3{opacity:0.7;fill:#FFFFFF;enable-background:new    ;}
	.st4{opacity:0.5;fill:#FFFFFF;enable-background:new    ;}
	.st5{fill:#FFFFFF;}
	.st6{clip-path:url(#SVGID_2_);}
	.st7{opacity:0.7;fill:#92E3A9;enable-background:new    ;}
	.st8{fill:none;stroke:#2E353A;stroke-linecap:round;stroke-linejoin:round;}
	.st9{fill:#2E353A;stroke:#363636;stroke-width:0.8687;stroke-linecap:round;stroke-linejoin:round;}
	.st10{fill:#FFFFFF;stroke:#363636;stroke-width:0.6515;stroke-linecap:round;stroke-linejoin:round;}
	.st11{fill:#92E3A9;stroke:#2E353A;stroke-linecap:round;stroke-linejoin:round;}
	.st12{opacity:0.5;fill:#92E3A9;enable-background:new    ;}
	.st13{fill:#FFFFFF;stroke:#2E353A;stroke-linecap:round;stroke-linejoin:round;}
	.st14{fill:#92E3A9;stroke:#2E353A;stroke-width:2;stroke-linecap:round;stroke-linejoin:round;}
	.st15{clip-path:url(#SVGID_4_);}
	.st16{fill:none;stroke:#2E353A;stroke-width:0.75;stroke-linecap:round;stroke-linejoin:round;}
	.st17{clip-path:url(#SVGID_6_);}
	.st18{fill:#2E353A;stroke:#2E353A;stroke-linecap:round;stroke-linejoin:round;}
	.st19{fill:#ECEDE2;}
	.st20{fill:#1E1E30;}
	.st21{fill:#DFE0CD;}
	.st22{fill:#28F3BB;}
	.st23{fill:#1BDDA1;}
	.st24{opacity:0.56;fill:#FFFFFF;enable-background:new    ;}
	.st25{opacity:0.15;}
	.st26{fill:#1B3C47;}
	.st27{fill:#3F3E3E;}
	.st28{fill:#302F2F;}
	.st29{fill:#CACAD8;}
	.st30{fill:#A1A1C4;}
	.st31{fill:#546B76;}
	.st32{fill:#7997A3;}
	.st33{fill:#3C5159;}
	.st34{fill:#B4E4F9;}
	.st35{fill:#70BEE0;}
	.st36{opacity:0.59;fill:#FFFFFF;enable-background:new    ;}
	.st37{opacity:0.3;fill:#FFFFFF;enable-background:new    ;}
	.st38{fill:#FFCCC0;}
	.st39{fill:#F29681;}
	.st40{fill:#FDFDFF;}
	.st41{fill:#DD7B6B;}
	.st42{opacity:0.39;fill:#FFFFFF;enable-background:new    ;}
	.st43{fill:#DD9742;}
	.st44{opacity:0.23;fill:#FFFFFF;enable-background:new    ;}
	.st45{fill:#DC166D;}
	.st46{opacity:0.5;fill:#89C342;enable-background:new    ;}
	.st47{fill:#263238;}
	.st48{opacity:0.9;fill:#FFFFFF;enable-background:new    ;}
	.st49{fill:#89C342;stroke:#263238;stroke-width:1.0293;stroke-miterlimit:10;}
	.st50{opacity:0.2;enable-background:new    ;}
	.st51{fill:#92E3A9;stroke:#263238;stroke-width:1.0293;stroke-miterlimit:10;}
	.st52{fill:none;stroke:#263238;stroke-width:1.0293;stroke-linecap:round;stroke-linejoin:round;}
	.st53{fill:none;stroke:#263238;stroke-width:4.1174;stroke-miterlimit:10;}
	.st54{fill:#FFFFFF;stroke:#263238;stroke-width:1.0293;stroke-miterlimit:10;}
	.st55{fill:none;stroke:#263238;stroke-width:1.0293;stroke-miterlimit:10;}
	.st56{opacity:0.3;enable-background:new    ;}
	.st57{fill:#92E3A9;stroke:#263238;stroke-width:1.0293;stroke-linecap:round;stroke-linejoin:round;}
	.st58{fill:#FFFFFF;stroke:#263238;stroke-width:1.0293;stroke-linecap:round;stroke-linejoin:round;}
	.st59{fill:#263238;stroke:#263238;stroke-width:1.0293;stroke-linecap:round;stroke-linejoin:round;}
	.st60{fill:#89C342;}
	.st61{opacity:0.4;fill:#FFFFFF;enable-background:new    ;}
	.st62{fill:none;stroke:#263238;stroke-width:2.0587;stroke-linecap:round;stroke-linejoin:round;}
	
		.st63{opacity:0.47;fill:none;stroke:#FFFFFF;stroke-width:1.0293;stroke-linecap:round;stroke-linejoin:round;enable-background:new    ;}
</style>
<title>interaction design</title>
<path class="st0" d="M426.5,515.6c-18.3-4.9-36.7-9.8-55.6-10.5s-38.5,2.9-53.9,13.8c-7.7,5.5-14.1,12.5-20.6,19.4
	c-34.5,36.5-72.9,69-114.7,96.9C165,646.4,147,657.1,127,659.9s-42.7-4.1-53-21.5l6.2-3.2"/>
<path class="st0" d="M428.5,517.5c6.9-0.8,14.4-0.5,20.3,3.2c6.3,3.9,9.9,11.3,11.2,18.7c1.2,7.4,0.4,15-0.5,22.5l-4.7,40.4
	c-0.7,5.6-1.3,11.5,0.5,16.9s6.8,10.1,12.3,9.6"/>
<path class="st0" d="M77.6,635.8c21.4,0.5,45.4,0,60.2-15.4c11.2-11.7,13.8-28.9,17.6-44.7c6.8-28.5,19.2-55.9,38-78.3
	c18.8-22.5,44.2-39.8,72.6-46.7c22.8-5.6,46.9-4.6,69.8-9.6s46.5-18.7,52.9-41.3"/>
<path class="st1" d="M428.5,360.6l-57.6,21c-0.6,0.2-0.9,0.9-0.7,1.5c0.1,0.2,0.2,0.4,0.4,0.5l8.6,4.8c0.5,0.3,0.8,0.8,1,1.3
	l4.9,15.6c0,0.7,1.2,1,1.3,0.4l0.7-12.2c0.2-0.9,0.7-1.7,1.3-2.3l31.7-23c0.2-0.1,0.4-0.2,0.6-0.1c0.3,0.1,0.5,0.5,0.4,0.8
	c0,0.1-0.1,0.2-0.2,0.2l-28.2,25.7c-0.6,0.6-1.1,1.4-1.3,2.3l-3,10.2c0,0.9,0.6,1.4,1.3,0.6l6-5.3c0.4-0.4,1.1-0.4,1.5,0
	c0,0,0,0,0,0l11.8,11.6c0.4,0.4,1.1,0.4,1.5,0c0.1-0.1,0.2-0.3,0.3-0.4l18.7-51.7c0.2-0.6,0-1.2-0.6-1.4
	C428.9,360.6,428.6,360.6,428.5,360.6L428.5,360.6z"/>
<g id="freepik--background-simple--inject-1--inject-2">
	<path class="st2" d="M560.6,224.9c23.7-37.1,34.2-92.4,12-132.7C552,55,507.7,37.1,466.9,36.1c-35.3-0.9-63.4,9.6-90.9,30.1
		c-14.2,10.6-28.6,21.9-45.7,28.1c-13.4,4.8-27.1,8.1-40.9,11.8c-49.8,13.3-80.5,58.5-73.9,107.2c5.2,37.4,34.2,72.1,71.2,86
		c28.7,10.8,58.8,2.8,86.6-6.6c14.9-5.1,30-10.3,45.8-12.7c15.3-2.3,30,0.6,45.1-1.1C501.3,274.9,539.7,257.6,560.6,224.9z"/>
	<path class="st3" d="M560.6,224.9c23.7-37.1,34.2-92.4,12-132.7C552,55,507.7,37.1,466.9,36.1c-35.3-0.9-63.4,9.6-90.9,30.1
		c-14.2,10.6-28.6,21.9-45.7,28.1c-13.4,4.8-27.1,8.1-40.9,11.8c-49.8,13.3-80.5,58.5-73.9,107.2c5.2,37.4,34.2,72.1,71.2,86
		c28.7,10.8,58.8,2.8,86.6-6.6c14.9-5.1,30-10.3,45.8-12.7c15.3-2.3,30,0.6,45.1-1.1C501.3,274.9,539.7,257.6,560.6,224.9z"/>
</g>
<g id="freepik--Desk--inject-1--inject-2">
	<polygon class="st2" points="572.4,243.1 568.1,243.1 376.6,243.1 372.4,243.1 372.4,251.6 376.6,251.6 376.6,337.8 568.1,337.8 
		568.1,251.6 572.4,251.6 	"/>
	<polygon class="st4" points="572.4,243.1 568.1,243.1 376.6,243.1 372.4,243.1 372.4,251.6 376.6,251.6 376.6,337.8 568.1,337.8 
		568.1,251.6 572.4,251.6 	"/>
	<path class="st5" d="M381.8,288.1H434v-27.9h-52.2V288.1z M382.8,261.3h50.1v25.9h-50.1V261.3z"/>
	<path class="st5" d="M446.6,288.1h52.2v-27.9h-52.2V288.1z M447.7,261.3h50.1v25.8h-50.1V261.3z"/>
	<path class="st5" d="M511.5,260.2v27.9h52.2v-27.9H511.5z M562.6,287.1h-50.1v-25.8h50.1V287.1z"/>
	<path class="st5" d="M381.8,325.6H434v-27.9h-52.2V325.6z M382.8,298.7h50.1v25.8h-50.1V298.7z"/>
	<path class="st5" d="M446.6,325.6h52.2v-27.9h-52.2V325.6z M447.7,298.7h50.1v25.8h-50.1V298.7z"/>
	<path class="st5" d="M511.5,325.6h52.2v-27.9h-52.2V325.6z M512.5,298.7h50.1v25.8h-50.1V298.7z"/>
	<ellipse class="st5" cx="408.4" cy="274.5" rx="8.5" ry="3.2"/>
	<ellipse class="st5" cx="473" cy="274.5" rx="8.5" ry="3.2"/>
	<ellipse class="st5" cx="539.4" cy="274.5" rx="8.5" ry="3.2"/>
	<path class="st5" d="M408.4,308.8c-4.7,0-8.5,1.4-8.5,3.2s3.8,3.2,8.5,3.2s8.5-1.4,8.5-3.2S413.1,308.8,408.4,308.8z"/>
	<path class="st5" d="M473,308.8c-4.7,0-8.5,1.4-8.5,3.2s3.8,3.2,8.5,3.2s8.5-1.4,8.5-3.2S477.7,308.8,473,308.8z"/>
	<path class="st5" d="M539.4,308.8c-4.7,0-8.5,1.4-8.5,3.2s3.8,3.2,8.5,3.2s8.5-1.4,8.5-3.2S544.1,308.8,539.4,308.8z"/>
</g>
<g id="freepik--Plants--inject-1--inject-2">
	<path class="st2" d="M348.9,235.7c-3.9,5.7-9.2,13.2-12.1,19.2c1.1-3.9,2.2-7.7,3.1-11c1.5-2.9,5.4-10.2,10-15
		c5.8-6.2,8.2-10.1,5.1-10.5c-2.1-0.2-8.4,8.1-12.4,16.5c0.9-2.9,1.5-5,2-6.3c0.2-0.6,0.4-1.2,0.6-1.9c4.1-5.7,7.8-11.7,11.1-17.9
		c5.8-10.9,7.7-21.2,3.8-16.8c-3.6,4.1-9.8,24.3-14.8,33.8c0.4-1.6,0.8-3.5,1.2-5.2c0.7-1.7,1.6-3.5,2.1-5.1
		c0.8-2.5,1.5-4.9,2.1-7.5c0.9-3.9,1.4-8,1.4-12c0.1-4.7-1.2-9.4-3.7-13.4c-0.7-1-4.8-7.1-6-4c-0.2,0.5-0.2,1.1-0.1,1.6
		c0.6,5.2,2.5,10,3.7,15.1c1.8,7.6,0.6,20.3,0,25.8c-0.2,0.9-0.5,1.9-0.8,3.1c0.8-9.4-3.3-20.6-7.1-22.6c-4.7-2.4-0.1,7.1,3.5,15.4
		c1.7,3.6,2.5,7.6,2.4,11.6c-0.7,2.7-1.6,5.8-2.5,8.9c-0.2,0.4-0.3,0.9-0.5,1.3c0.4-2,0.6-4.1,0.5-6.1c-0.3-5.4-6.5-16.3-10.6-14.7
		c-4.1,1.5,2.8,7.3,6.5,13.9c1.9,3.7,2.7,7.9,2.1,12c0,0.3-0.1,0.5-0.1,0.7c-0.4,1.4-0.9,2.8-1.3,4.1c-1,3-1.9,5.9-2.7,8.7
		c1-4,1.5-8.2,1.4-12.4c-0.5-7.9-5.2-15.4-9-16.5s3.5,11.9,6,19.2c1.3,4.3,1.6,8.8,0.7,13.1c-1.2,3.9-2.3,7.8-3.5,11.9
		c0.3-5.4,0.2-10.8-0.4-16.1c-0.8-8.8-6-14.5-9.6-14.2s0.2,5.3,5.4,16c2.8,5.6,4,11.9,3.6,18.2c-0.5,1.7-1,3.5-1.4,5.4
		c-0.6,2.1-1,4.4-1.4,6.8c-0.5-2.1-1.3-5.2-2.2-8.6c-1.1-3.8-1.8-7.6-2.3-11.5c-0.5-4.5-1.7-10.1-6.1-12.5c-1.1-0.8-2.7-0.5-3.5,0.6
		c-0.1,0.1-0.2,0.2-0.2,0.4c-0.4,1-0.5,2-0.3,3.1c0.6,3.1,1.6,6,3,8.8c-0.9,1.7-1.3,3.5-1.1,5.4c0,0.7,0.1,1.4,0.1,2.1
		c-0.4-0.7-0.8-1.4-1.1-2c-0.6-1.1-1.4-2-2.3-2.9c0.2-1.7,0.3-3.3,0.3-5c0-2.2-2.6-7.8-4.9-3.6c-0.9,1.7-0.8,4.9-0.8,7.1
		c-0.6,0.6-0.8,1.8-0.3,3.7c-0.4,5-0.4,10.1,0.8,15l-0.8-1.4c-1.1-5.8-1.8-11.6-2-17.5c-0.3-9.7,1.3-17.7-1.4-20.7s-4.1,7.5-3,19
		c0.5,5.2,1.9,10.4,4.1,15.2c-2.6-4.7-5.2-9.4-7.6-14c-1-2.5-3.5-9.1-2.9-15.8c0.8-8.5,1.3-15.4-1.9-20.2s-3.9-1.7-2.3,8.3
		c1.1,6.8,2.2,15.9,4.2,22.3c-1.9-3.6-3.6-7.1-5.2-10.2c-0.9-3.1-3-11.1-3-17.8c0-8.5-0.9-13-3.4-11.2c-1.7,1.3-0.6,11.7,2.2,20.5
		c-1.3-2.7-2.3-4.7-2.9-5.9c-0.3-0.5-0.6-1.1-0.9-1.8c-0.9-7-2.3-13.9-4.1-20.7c-3.2-11.9-8.8-20.7-8.6-14.9
		c0.2,5.4,9.4,24.5,12.3,34.8c-0.8-1.5-1.8-3.1-2.7-4.6c-0.7-1.8-1.2-3.7-1.9-5.2c-1.1-2.4-2.3-4.6-3.6-6.9c-2-3.5-4.4-6.8-7.2-9.8
		c-3.2-3.6-7.4-6.2-12.1-7.5c-1.2-0.3-8.3-2-7.1,1.2c0.2,0.5,0.6,0.9,1,1.2c4,3.4,8.6,5.6,13,8.5c6.5,4.4,14.3,14.5,17.5,18.9
		l1.5,2.9c-5.9-7.5-16.5-12.8-20.6-11.7c-5.1,1.4,4.8,5.2,13.1,8.8c3.7,1.5,7,3.9,9.7,6.9c1.3,2.5,2.8,5.3,4.3,8.2
		c0.2,0.4,0.3,0.9,0.5,1.3c-1.1-1.8-2.4-3.4-3.8-4.8c-4-3.7-15.9-7.5-17.8-3.6s7,3.4,14.3,5.7c3.9,1.4,7.3,3.9,9.7,7.3
		c0.1,0.2,0.3,0.4,0.4,0.6c0.7,1.3,1.3,2.6,1.9,3.8c1.4,2.9,2.7,5.6,3.9,8.2c-2-3.7-4.5-7-7.4-10c-5.8-5.5-14.3-7.8-17.9-5.9
		s10.7,6.3,17.5,10c3.9,2.2,7.1,5.3,9.4,9.2c1.8,3.7,3.6,7.3,5.6,11.1c-3.4-4.2-7.2-8-11.3-11.6c-6.6-6-14.3-6.5-16.8-3.9
		c-2.5,2.6,3.7,3.7,14.8,8c5.9,2.2,11,6,15,10.9c0.8,1.6,1.7,3.2,2.6,4.9c1,1.9,2.3,3.9,3.6,5.9c-1.8-1.2-4.5-2.9-7.5-4.8
		c-3.3-2-6.5-4.3-9.5-6.8c-3.4-3-8.1-6.3-13-5c-1.4,0.2-2.3,1.5-2.1,2.8c0,0.1,0.1,0.3,0.1,0.4c0.4,1,1,1.8,1.9,2.4
		c4.6,3.5,10.7,5.2,16,7.3c4.9,1.9,9.9,3.5,14.9,4.8c1.3,1.8,2.6,3.6,3.9,5.3l-2.4,0.1c-2.8,0.1-15.5-5.7-22-7.5
		c-6.5-1.9-12.5,1.6-5.7,5.3c6.8,3.6,25.2,2.8,25.2,2.8l5.3-0.2c1.3,1.6,2.5,3.1,3.6,4.5h-25.2v7h5l4,24.9h33.5l4.1-24.9h5v-7h-16.7
		c-0.1-3-0.1-6.1,0.2-9.1c1.1-1.1,2.4-2.1,3.7-3c7.3-5.1,19.8-5.5,23.1-15.3c0.8-2.4-0.1-5.4-2.9-5.2c-2,0.1-4.2,1.9-5.4,3.3
		c-4.2,4.9-7.4,9.9-12.8,13.6c-1.9,1.4-3.7,3-5.4,4.6c0.2-1.6,0.4-3.3,0.7-5.1c1.3-2.3,2.8-4.6,4.5-6.7c4.5-5.5,11.3-8.8,16.1-14.1
		c1.5-1.6,3.4-7.4-1.1-6c-2,0.6-4.4,3.7-6,5.1c-4.4,4-9,8.3-11.9,13.5c0.1-0.5,0.3-1,0.4-1.6c3.1-5,6.6-9.7,10.5-14.2
		c6.4-7.3,13-12.1,13.1-16.1c0.1-4-8.2,2.7-15.2,11.9c-3.2,4.2-5.7,8.9-7.3,13.9c1.3-5.2,2.7-10.4,4-15.4c0.9-2.5,3.6-9,8.7-13.5
		c6.4-5.7,11.5-10.4,12.4-16C357.1,225.6,354.5,227.3,348.9,235.7z M313.4,300c-0.9-1.3-1.9-2.7-3-4.2c-0.6-2.6-1.1-5.3-1.3-8
		c-0.1-2.3,0-4.6,0.3-6.9c1.7,2.1,3.5,4.1,5.4,6.1c0,2-0.3,4-0.7,5.9C313.8,295.3,313.5,297.6,313.4,300z M318.8,306.6
		c-1.3-1.4-2.7-3-4.2-5c0-1.6,0.3-3.2,0.6-4.7c0.6-2.4,1.5-4.8,2.6-7c2.4,2.3,4.1,3.7,4.1,3.7l4,3.5c-0.3,3.5-0.5,6.8-0.6,9.4
		L318.8,306.6z M326,296.5l-1.8-1.6c-1-0.9-2.8-4.4-4.8-8.4c0.8-1.7,1.6-3.4,2.2-5.2c2.1,3.9,4,7,5.1,8.6
		C326.5,292.2,326.2,294.4,326,296.5z"/>
	<path class="st4" d="M348.9,235.7c-3.9,5.7-9.2,13.2-12.1,19.2c1.1-3.9,2.2-7.7,3.1-11c1.5-2.9,5.4-10.2,10-15
		c5.8-6.2,8.2-10.1,5.1-10.5c-2.1-0.2-8.4,8.1-12.4,16.5c0.9-2.9,1.5-5,2-6.3c0.2-0.6,0.4-1.2,0.6-1.9c4.1-5.7,7.8-11.7,11.1-17.9
		c5.8-10.9,7.7-21.2,3.8-16.8c-3.6,4.1-9.8,24.3-14.8,33.8c0.4-1.6,0.8-3.5,1.2-5.2c0.7-1.7,1.6-3.5,2.1-5.1
		c0.8-2.5,1.5-4.9,2.1-7.5c0.9-3.9,1.4-8,1.4-12c0.1-4.7-1.2-9.4-3.7-13.4c-0.7-1-4.8-7.1-6-4c-0.2,0.5-0.2,1.1-0.1,1.6
		c0.6,5.2,2.5,10,3.7,15.1c1.8,7.6,0.6,20.3,0,25.8c-0.2,0.9-0.5,1.9-0.8,3.1c0.8-9.4-3.3-20.6-7.1-22.6c-4.7-2.4-0.1,7.1,3.5,15.4
		c1.7,3.6,2.5,7.6,2.4,11.6c-0.7,2.7-1.6,5.8-2.5,8.9c-0.2,0.4-0.3,0.9-0.5,1.3c0.4-2,0.6-4.1,0.5-6.1c-0.3-5.4-6.5-16.3-10.6-14.7
		c-4.1,1.5,2.8,7.3,6.5,13.9c1.9,3.7,2.7,7.9,2.1,12c0,0.3-0.1,0.5-0.1,0.7c-0.4,1.4-0.9,2.8-1.3,4.1c-1,3-1.9,5.9-2.7,8.7
		c1-4,1.5-8.2,1.4-12.4c-0.5-7.9-5.2-15.4-9-16.5s3.5,11.9,6,19.2c1.3,4.3,1.6,8.8,0.7,13.1c-1.2,3.9-2.3,7.8-3.5,11.9
		c0.3-5.4,0.2-10.8-0.4-16.1c-0.8-8.8-6-14.5-9.6-14.2s0.2,5.3,5.4,16c2.8,5.6,4,11.9,3.6,18.2c-0.5,1.7-1,3.5-1.4,5.4
		c-0.6,2.1-1,4.4-1.4,6.8c-0.5-2.1-1.3-5.2-2.2-8.6c-1.1-3.8-1.8-7.6-2.3-11.5c-0.5-4.5-1.7-10.1-6.1-12.5c-1.1-0.8-2.7-0.5-3.5,0.6
		c-0.1,0.1-0.2,0.2-0.2,0.4c-0.4,1-0.5,2-0.3,3.1c0.6,3.1,1.6,6,3,8.8c-0.9,1.7-1.3,3.5-1.1,5.4c0,0.7,0.1,1.4,0.1,2.1
		c-0.4-0.7-0.8-1.4-1.1-2c-0.6-1.1-1.4-2-2.3-2.9c0.2-1.7,0.3-3.3,0.3-5c0-2.2-2.6-7.8-4.9-3.6c-0.9,1.7-0.8,4.9-0.8,7.1
		c-0.6,0.6-0.8,1.8-0.3,3.7c-0.4,5-0.4,10.1,0.8,15l-0.8-1.4c-1.1-5.8-1.8-11.6-2-17.5c-0.3-9.7,1.3-17.7-1.4-20.7s-4.1,7.5-3,19
		c0.5,5.2,1.9,10.4,4.1,15.2c-2.6-4.7-5.2-9.4-7.6-14c-1-2.5-3.5-9.1-2.9-15.8c0.8-8.5,1.3-15.4-1.9-20.2s-3.9-1.7-2.3,8.3
		c1.1,6.8,2.2,15.9,4.2,22.3c-1.9-3.6-3.6-7.1-5.2-10.2c-0.9-3.1-3-11.1-3-17.8c0-8.5-0.9-13-3.4-11.2c-1.7,1.3-0.6,11.7,2.2,20.5
		c-1.3-2.7-2.3-4.7-2.9-5.9c-0.3-0.5-0.6-1.1-0.9-1.8c-0.9-7-2.3-13.9-4.1-20.7c-3.2-11.9-8.8-20.7-8.6-14.9
		c0.2,5.4,9.4,24.5,12.3,34.8c-0.8-1.5-1.8-3.1-2.7-4.6c-0.7-1.8-1.2-3.7-1.9-5.2c-1.1-2.4-2.3-4.6-3.6-6.9c-2-3.5-4.4-6.8-7.2-9.8
		c-3.2-3.6-7.4-6.2-12.1-7.5c-1.2-0.3-8.3-2-7.1,1.2c0.2,0.5,0.6,0.9,1,1.2c4,3.4,8.6,5.6,13,8.5c6.5,4.4,14.3,14.5,17.5,18.9
		l1.5,2.9c-5.9-7.5-16.5-12.8-20.6-11.7c-5.1,1.4,4.8,5.2,13.1,8.8c3.7,1.5,7,3.9,9.7,6.9c1.3,2.5,2.8,5.3,4.3,8.2
		c0.2,0.4,0.3,0.9,0.5,1.3c-1.1-1.8-2.4-3.4-3.8-4.8c-4-3.7-15.9-7.5-17.8-3.6s7,3.4,14.3,5.7c3.9,1.4,7.3,3.9,9.7,7.3
		c0.1,0.2,0.3,0.4,0.4,0.6c0.7,1.3,1.3,2.6,1.9,3.8c1.4,2.9,2.7,5.6,3.9,8.2c-2-3.7-4.5-7-7.4-10c-5.8-5.5-14.3-7.8-17.9-5.9
		s10.7,6.3,17.5,10c3.9,2.2,7.1,5.3,9.4,9.2c1.8,3.7,3.6,7.3,5.6,11.1c-3.4-4.2-7.2-8-11.3-11.6c-6.6-6-14.3-6.5-16.8-3.9
		c-2.5,2.6,3.7,3.7,14.8,8c5.9,2.2,11,6,15,10.9c0.8,1.6,1.7,3.2,2.6,4.9c1,1.9,2.3,3.9,3.6,5.9c-1.8-1.2-4.5-2.9-7.5-4.8
		c-3.3-2-6.5-4.3-9.5-6.8c-3.4-3-8.1-6.3-13-5c-1.4,0.2-2.3,1.5-2.1,2.8c0,0.1,0.1,0.3,0.1,0.4c0.4,1,1,1.8,1.9,2.4
		c4.6,3.5,10.7,5.2,16,7.3c4.9,1.9,9.9,3.5,14.9,4.8c1.3,1.8,2.6,3.6,3.9,5.3l-2.4,0.1c-2.8,0.1-15.5-5.7-22-7.5
		c-6.5-1.9-12.5,1.6-5.7,5.3c6.8,3.6,25.2,2.8,25.2,2.8l5.3-0.2c1.3,1.6,2.5,3.1,3.6,4.5h-25.2v7h5l4,24.9h33.5l4.1-24.9h5v-7h-16.7
		c-0.1-3-0.1-6.1,0.2-9.1c1.1-1.1,2.4-2.1,3.7-3c7.3-5.1,19.8-5.5,23.1-15.3c0.8-2.4-0.1-5.4-2.9-5.2c-2,0.1-4.2,1.9-5.4,3.3
		c-4.2,4.9-7.4,9.9-12.8,13.6c-1.9,1.4-3.7,3-5.4,4.6c0.2-1.6,0.4-3.3,0.7-5.1c1.3-2.3,2.8-4.6,4.5-6.7c4.5-5.5,11.3-8.8,16.1-14.1
		c1.5-1.6,3.4-7.4-1.1-6c-2,0.6-4.4,3.7-6,5.1c-4.4,4-9,8.3-11.9,13.5c0.1-0.5,0.3-1,0.4-1.6c3.1-5,6.6-9.7,10.5-14.2
		c6.4-7.3,13-12.1,13.1-16.1c0.1-4-8.2,2.7-15.2,11.9c-3.2,4.2-5.7,8.9-7.3,13.9c1.3-5.2,2.7-10.4,4-15.4c0.9-2.5,3.6-9,8.7-13.5
		c6.4-5.7,11.5-10.4,12.4-16C357.1,225.6,354.5,227.3,348.9,235.7z M313.4,300c-0.9-1.3-1.9-2.7-3-4.2c-0.6-2.6-1.1-5.3-1.3-8
		c-0.1-2.3,0-4.6,0.3-6.9c1.7,2.1,3.5,4.1,5.4,6.1c0,2-0.3,4-0.7,5.9C313.8,295.3,313.5,297.6,313.4,300z M318.8,306.6
		c-1.3-1.4-2.7-3-4.2-5c0-1.6,0.3-3.2,0.6-4.7c0.6-2.4,1.5-4.8,2.6-7c2.4,2.3,4.1,3.7,4.1,3.7l4,3.5c-0.3,3.5-0.5,6.8-0.6,9.4
		L318.8,306.6z M326,296.5l-1.8-1.6c-1-0.9-2.8-4.4-4.8-8.4c0.8-1.7,1.6-3.4,2.2-5.2c2.1,3.9,4,7,5.1,8.6
		C326.5,292.2,326.2,294.4,326,296.5z"/>
</g>
<g id="freepik--Frames--inject-1--inject-2">
	<path class="st2" d="M250.3,47.4v101.4h77V47.4H250.3z M321.9,141.7h-66.3V54.4h66.3V141.7z"/>
	<path class="st4" d="M250.3,47.4v101.4h77V47.4H250.3z M321.9,141.7h-66.3V54.4h66.3V141.7z"/>
	<path class="st2" d="M519.7,96.8v74.9h56.9V96.8H519.7z M572.6,166.5h-48.9v-64.4h48.9L572.6,166.5z"/>
	<path class="st4" d="M519.7,96.8v74.9h56.9V96.8H519.7z M572.6,166.5h-48.9v-64.4h48.9L572.6,166.5z"/>
</g>
<g id="freepik--Device--inject-1--inject-2">
	<path class="st5" d="M194.5,348.9c2.9-9.7,32.6-110.8,32.5-111.5c-0.1-0.8,2.4-14.3,8.3-25.6s14.1-23.9,15.2-25.4
		c1.6-2.5,2.6-5.3,3.1-8.2c0.8-4.1,9-15.4,11.6-18.5c2.6-3.1,10.3-19.3,10.8-21.9c0.5-2.6,3.6-4.6,7.7-5.4c4.1-0.8,9.8-1.5,9.8-1.5
		c1,1.2,1.7,2.8,1.8,4.4c0,2.3-9.3,57.6-9.8,66.8c-0.5,9.3,0.8,14.4-3.3,23.9c-4.1,9.5-16.2,15.4-22.1,19.3
		c-5.9,3.9-5.5,4.7-5.5,4.7s3.3,92.5,3.3,99.8"/>
	<g>
		<defs>
			<path id="SVGID_1_" d="M194.5,348.9c2.9-9.7,32.6-110.8,32.5-111.5c-0.1-0.8,2.4-14.3,8.3-25.6s14.1-23.9,15.2-25.4
				c1.6-2.5,2.6-5.3,3.1-8.2c0.8-4.1,9-15.4,11.6-18.5c2.6-3.1,10.3-19.3,10.8-21.9c0.5-2.6,3.6-4.6,7.7-5.4
				c4.1-0.8,9.8-1.5,9.8-1.5c1,1.2,1.7,2.8,1.8,4.4c0,2.3-9.3,57.6-9.8,66.8c-0.5,9.3,0.8,14.4-3.3,23.9
				c-4.1,9.5-16.2,15.4-22.1,19.3c-5.9,3.9-5.5,4.7-5.5,4.7s3.3,92.5,3.3,99.8"/>
		</defs>
		<clipPath id="SVGID_2_">
			<use xlink:href="#SVGID_1_"  style="overflow:visible;"/>
		</clipPath>
		<g class="st6">
			<path class="st7" d="M299,191.4c-1.1-4.8-8-2.1-8-2.1c-4.7,5.1-10.5,9.1-17,11.7c-10.8,4.1-21.3,9.1-31.3,15
				c1.1-2.3,2.4-4.6,3.7-7c6.9-12.2,19.1-28.7,26-30.8c4.2-1.3,8.5,1.4,11.1,3.7l0.3-49.5h-0.2c-4.1,0.8-7.2,2.8-7.7,5.4
				s-8.2,18.8-10.8,21.9s-10.8,14.4-11.6,18.5c-0.5,2.9-1.5,5.7-3.1,8.2c-1,1.5-9.3,14.1-15.2,25.4c-5.9,11.3-8.4,24.9-8.3,25.6
				c0.1,0.6-11.4,42-18.6,68.1c6-11.8,15.3-30.9,21-45c2.2-0.2,6.6-6.3,10.1-11.2c4.3-5.8,10.6-7.4,23.4-17
				c12.8-9.6,27.1-22.9,29.2-28.2S300.1,196.2,299,191.4z"/>
		</g>
	</g>
	<path class="st8" d="M194.5,348.9c2.9-9.7,32.6-110.8,32.5-111.5c-0.1-0.8,2.4-14.3,8.3-25.6s14.1-23.9,15.2-25.4
		c1.6-2.5,2.6-5.3,3.1-8.2c0.8-4.1,9-15.4,11.6-18.5c2.6-3.1,10.3-19.3,10.8-21.9c0.5-2.6,3.6-4.6,7.7-5.4c4.1-0.8,9.8-1.5,9.8-1.5
		c1,1.2,1.7,2.8,1.8,4.4c0,2.3-9.3,57.6-9.8,66.8c-0.5,9.3,0.8,14.4-3.3,23.9c-4.1,9.5-16.2,15.4-22.1,19.3
		c-5.9,3.9-5.5,4.7-5.5,4.7s3.3,92.5,3.3,99.8"/>
	<path class="st8" d="M283.1,193.8c0,0-2.8-0.3-5.6-5.4"/>
	<path class="st8" d="M280.1,160.6c0,0,8,1.5,9,8.2"/>
	<path class="st8" d="M282.6,139.8c3.6,2.7,5.8,6.8,6.2,11.3"/>
	<path class="st9" d="M541.9,193.8L541.2,87c0-6.5-5.3-11.7-11.7-11.7H295.8c-6.5,0-11.7,5.3-11.7,11.7l-0.6,106.8
		c0,6.5,5.3,11.8,11.8,11.9c0,0,0,0,0,0H530C536.5,205.6,541.8,200.3,541.9,193.8C541.9,193.8,541.9,193.8,541.9,193.8z"/>
	<polygon class="st10" points="528.7,199.8 528.2,81 297.1,81 296.6,199.8 	"/>
	<polygon class="st11" points="528.2,81 297.1,81 297.1,87 319.3,87 325,95.1 528.3,95.1 	"/>
	<polygon class="st12" points="528.2,104.7 365.8,199.8 528.7,199.8 	"/>
	
		<ellipse transform="matrix(1.291503e-02 -0.9999 0.9999 1.291503e-02 387.4078 673.1918)" class="st5" cx="534.7" cy="140.4" rx="1.8" ry="1.8"/>
	<circle class="st11" cx="314.9" cy="114.9" r="9.6"/>
	<circle class="st13" cx="314.9" cy="154.2" r="9.6"/>
	<circle class="st13" cx="380.3" cy="114.9" r="9.6"/>
	<circle class="st11" cx="380.3" cy="154.2" r="9.6"/>
	<circle class="st11" cx="445.7" cy="114.9" r="9.6"/>
	<circle class="st14" cx="445.7" cy="154.2" r="9.6"/>
	<circle class="st11" cx="511.1" cy="114.9" r="9.6"/>
	<circle class="st13" cx="511.1" cy="154.2" r="9.6"/>
	<line class="st8" x1="331.5" y1="127.8" x2="362.9" y2="127.8"/>
	<line class="st8" x1="331.5" y1="135.1" x2="362.9" y2="135.1"/>
	<line class="st8" x1="331.5" y1="142.3" x2="362.9" y2="142.3"/>
	<line class="st8" x1="396" y1="127.8" x2="427.4" y2="127.8"/>
	<line class="st8" x1="396" y1="135.1" x2="427.4" y2="135.1"/>
	<line class="st8" x1="396" y1="142.3" x2="427.4" y2="142.3"/>
	<line class="st8" x1="464.8" y1="127.8" x2="496.1" y2="127.8"/>
	<line class="st8" x1="464.8" y1="135.1" x2="496.1" y2="135.1"/>
	<line class="st8" x1="464.8" y1="142.3" x2="496.1" y2="142.3"/>
	<line class="st8" x1="331.5" y1="168.8" x2="362.9" y2="168.8"/>
	<line class="st8" x1="331.5" y1="176" x2="362.9" y2="176"/>
	<line class="st8" x1="331.5" y1="183.2" x2="362.9" y2="183.2"/>
	<line class="st8" x1="396" y1="168.8" x2="427.4" y2="168.8"/>
	<line class="st8" x1="396" y1="176" x2="427.4" y2="176"/>
	<line class="st8" x1="396" y1="183.2" x2="427.4" y2="183.2"/>
	<line class="st8" x1="464.8" y1="168.8" x2="496.1" y2="168.8"/>
	<line class="st8" x1="464.8" y1="176" x2="496.1" y2="176"/>
	<line class="st8" x1="464.8" y1="183.2" x2="496.1" y2="183.2"/>
	<line class="st8" x1="426.8" y1="154.7" x2="432.8" y2="154.7"/>
	<line class="st8" x1="446.3" y1="142.8" x2="446.3" y2="135.4"/>
	<line class="st8" x1="433.2" y1="143.7" x2="437" y2="146.7"/>
	<line class="st8" x1="437.9" y1="162.3" x2="433.2" y2="164.9"/>
	<line class="st8" x1="466.3" y1="154.7" x2="460.3" y2="154.7"/>
	<line class="st8" x1="459.9" y1="143.7" x2="456.1" y2="146.7"/>
	<line class="st8" x1="441.7" y1="174.4" x2="446.7" y2="192.2"/>
	<line class="st8" x1="436.7" y1="172.2" x2="439.6" y2="181.5"/>
	<path class="st5" d="M559.9,342.3c0,0-23.8-43.8-27.1-51.5s-5.9-19.8-6.8-23.1c-1.2-3.9-1.3-8-0.3-12c1.3-5.6,0.5-21.6,1.1-25.3
		s-1.7-15.1-3-21.6c-1.3-6.4-4.2-11-8.1-11.5c-2.3-0.3-4.6,0.6-6.2,2.4c0,0-1.6-13.7-3.2-16.5s-6.8-2.4-9.5-1.8s-4.1,9.5-4.1,9.5
		s-2.4-8.5-2.5-12.3s-4.7-7.1-8.3-6.2s-5.5,2.6-6.5,10.4s0.9,20.1,0.9,20.1l-1.9,0.8c0,0-6.7-23.6-8.9-29.8s-4.2-13.4-5.6-18
		s-3.6-12-9.5-10.9s-4.4,14-4.4,14s9.2,39.4,9.7,42.6s2,13.9,1.7,17.5s-0.3,13-0.3,13l-8.8-10.5c-1.1-2.8-2.4-5.5-4.1-8.1
		c-3-4.8-9.7-9.4-14-8s-0.9,5.8,0.9,8.3s3.2,9.5,3.2,13s3,6,6.6,12.5s21.8,28.8,24.5,32.8c2,2.7,4.6,5,7.5,6.6
		c0,0,10.5,9.1,15.4,20.6s19.9,44.2,19.9,44.2"/>
	<g>
		<defs>
			<path id="SVGID_3_" d="M559.9,342.3c0,0-23.8-43.8-27.1-51.5s-5.9-19.8-6.8-23.1c-1.2-3.9-1.3-8-0.3-12
				c1.3-5.6,0.5-21.6,1.1-25.3s-1.7-15.1-3-21.6c-1.3-6.4-4.2-11-8.1-11.5c-2.3-0.3-4.6,0.6-6.2,2.4c0,0-1.6-13.7-3.2-16.5
				s-6.8-2.4-9.5-1.8s-4.1,9.5-4.1,9.5s-2.4-8.5-2.5-12.3s-4.7-7.1-8.3-6.2s-5.5,2.6-6.5,10.4s0.9,20.1,0.9,20.1l-1.9,0.8
				c0,0-6.7-23.6-8.9-29.8s-4.2-13.4-5.6-18s-3.6-12-9.5-10.9s-4.4,14-4.4,14s9.2,39.4,9.7,42.6s2,13.9,1.7,17.5s-0.3,13-0.3,13
				l-8.8-10.5c-1.1-2.8-2.4-5.5-4.1-8.1c-3-4.8-9.7-9.4-14-8s-0.9,5.8,0.9,8.3s3.2,9.5,3.2,13s3,6,6.6,12.5s21.8,28.8,24.5,32.8
				c2,2.7,4.6,5,7.5,6.6c0,0,10.5,9.1,15.4,20.6s19.9,44.2,19.9,44.2"/>
		</defs>
		<clipPath id="SVGID_4_">
			<use xlink:href="#SVGID_3_"  style="overflow:visible;"/>
		</clipPath>
		<g class="st15">
			<path class="st7" d="M524,331.9c4.9-4.5,6.1-40.9,5.5-54.4c0-0.1,0-0.2,0-0.4c-1.8-4.5-3.1-8.2-3.4-9.4c-1.2-3.9-1.3-8-0.3-12
				c1.3-5.6,0.5-21.6,1.1-25.3c0.3-2.2-0.3-7.1-1.2-12.1c-3.6-0.3-10.1,2.9-10.1,2.9s-5.1-7.5-8.5-7.7s-9.2,5-9.2,5
				s-3.3-11.2-10.2-10.1s-8.8,0-11.5,0.1s-4.9-6.5-7.6-12.9s-6.6-30.6-8.9-35.6c0,0-3.6-10.1-8.2-6.7s-0.3,14.3,1.9,20.9
				s3.4,19.1,5.1,25c2,6.6,1,16.5,2.8,23.7s6.5,9.6,3.9,19s-8.3,6.4-14.6,0.9s-9.4-18.3-13-17c-1.2,0.3-2.4,0.8-3.6,1.4
				c0.1,3.5,3,6,6.6,12.3s21.8,28.6,24.6,32.7c2,2.7,4.6,5,7.5,6.6c0,0,10.5,9.1,15.4,20.6c0.9,2,2.3,5.1,4,8.7c2,1.6-2.2-6-1.2-4.7
				C498.1,311.5,519.1,336.4,524,331.9z"/>
		</g>
	</g>
	<path class="st8" d="M559.9,342.3c0,0-23.8-43.8-27.1-51.5s-5.9-19.8-6.8-23.1c-1.2-3.9-1.3-8-0.3-12c1.3-5.6,0.5-21.6,1.1-25.3
		s-1.7-15.1-3-21.6c-1.3-6.4-4.2-11-8.1-11.5c-2.3-0.3-4.6,0.6-6.2,2.4c0,0-1.6-13.7-3.2-16.5s-6.8-2.4-9.5-1.8s-4.1,9.5-4.1,9.5
		s-2.4-8.5-2.5-12.3s-4.7-7.1-8.3-6.2s-5.5,2.6-6.5,10.4s0.9,20.1,0.9,20.1l-1.9,0.8c0,0-6.7-23.6-8.9-29.8s-4.2-13.4-5.6-18
		s-3.6-12-9.5-10.9s-4.4,14-4.4,14s9.2,39.4,9.7,42.6s2,13.9,1.7,17.5s-0.3,13-0.3,13l-8.8-10.5c-1.1-2.8-2.4-5.5-4.1-8.1
		c-3-4.8-9.7-9.4-14-8s-0.9,5.8,0.9,8.3s3.2,9.5,3.2,13s3,6,6.6,12.5s21.8,28.8,24.5,32.8c2,2.7,4.6,5,7.5,6.6
		c0,0,10.5,9.1,15.4,20.6s19.9,44.2,19.9,44.2"/>
	<path class="st8" d="M447.2,148c0,0,1.1,6.8,1.3,7.6c0.5,1.9,8.4,1,9-0.5c0.6-1.3,0.1-4.1,0.1-4.1"/>
	<path class="st8" d="M433.7,214.3c1.4-1.4,1.6-3.5,0.5-5.1c-1.9-2.8-2.9-3.4-2.9-3.4"/>
	<path class="st16" d="M456.4,187.2c0,0,3.5,1.2,6.9-3.2"/>
	<path class="st16" d="M456.8,184.1c0,0,4.7-3.5,8.3-3.2"/>
	<path class="st16" d="M451.9,165.7c0,0,3.5-3.5,6.4-2.8"/>
	<path class="st16" d="M455.2,164.8c1.5,0.2,2.9,0.2,4.4-0.2"/>
	<line class="st8" x1="492.6" y1="191.1" x2="494.5" y2="202.1"/>
	<line class="st8" x1="509.5" y1="199.8" x2="511.5" y2="211.4"/>
	<path class="st8" d="M457,232.3c0,0-0.5,8.6,0.3,12"/>
	<path class="st16" d="M494.5,208c0,0,2,5.4,1.5,9"/>
	<path class="st16" d="M511.3,213.6c0,0,1.4,2.8,0.6,7.9"/>
	<path class="st5" d="M273.6,197.9c0,0,8.5-1.5,13.1-7.2s15.7-12.9,19.3-14.1c3.6-1.3,9.3-1.6,11.3,0.3s3.1,6.2,0,11.3
		c-3.1,5.1-15.6,10-18.3,12.3s-4.9,3.9-8,10.8c-3,6.7-7.4,12.8-12.9,17.7c-4.9,4.4-13.9,11.8-18.5,14.6"/>
	<g>
		<defs>
			<path id="SVGID_5_" d="M273.6,197.9c0,0,8.5-1.5,13.1-7.2s15.7-12.9,19.3-14.1c3.6-1.3,9.3-1.6,11.3,0.3s3.1,6.2,0,11.3
				c-3.1,5.1-15.6,10-18.3,12.3s-4.9,3.9-8,10.8c-3,6.7-7.4,12.8-12.9,17.7c-4.9,4.4-13.9,11.8-18.5,14.6"/>
		</defs>
		<clipPath id="SVGID_6_">
			<use xlink:href="#SVGID_5_"  style="overflow:visible;"/>
		</clipPath>
		<g class="st17">
			<path class="st7" d="M299,191.4c-1.1-4.8-8-2.1-8-2.1c-4.7,5.1-10.5,9.1-17,11.7c-10.8,4.1-21.3,9.1-31.3,15
				c1.1-2.3,2.4-4.6,3.7-7c6.9-12.2,19.1-28.7,26-30.8c4.2-1.3,8.5,1.4,11.1,3.7l0.3-49.5h-0.2c-4.1,0.8-7.2,2.8-7.7,5.4
				s-8.2,18.8-10.8,21.9s-10.8,14.4-11.6,18.5c-0.5,2.9-1.5,5.7-3.1,8.2c-1,1.5-9.3,14.1-15.2,25.4c-5.9,11.3-8.4,24.9-8.3,25.6
				c0.1,0.6-11.4,42-18.6,68.1c6-11.8,15.3-30.9,21-45c2.2-0.2,6.6-6.3,10.1-11.2c4.3-5.8,10.6-7.4,23.4-17
				c12.8-9.6,27.1-22.9,29.2-28.2S300.1,196.2,299,191.4z"/>
		</g>
	</g>
	<path class="st8" d="M273.6,197.9c0,0,8.5-1.5,13.1-7.2s15.7-12.9,19.3-14.1c3.6-1.3,9.3-1.6,11.3,0.3s3.1,6.2,0,11.3
		c-3.1,5.1-15.6,10-18.3,12.3s-4.9,3.9-8,10.8c-3,6.7-7.4,12.8-12.9,17.7c-4.9,4.4-13.9,11.8-18.5,14.6"/>
	<path class="st8" d="M317.6,186.1c-1.5,2.3-5.4,2.6-5.4,2.6s-1.5-3.3-2.6-5.4c-0.8-1.4-2-2.5-3.3-3.3c0,0,1.3-3.3,3.9-3.3"/>
	<path class="st13" d="M217,250c9.5-2.1,19.2-2.8,28.9-2.4c16.4,0.8,20.3,10.2,20.3,10.2l-0.8,21.1c0,0-8.6-6.3-26.6-8.6
		s-27.3-0.8-27.3-0.8L217,250z"/>
	<path class="st18" d="M266.3,348.4l4.2-67.7c-27.3-16.4-59.1-11.2-59.1-11.2l-27,78.9H266.3z"/>
	<path class="st13" d="M479.7,296.4c0,0,2.7-10.7,17.3-19.3s36.7-5.3,36.7-5.3l3.3,8.7c0,0-18-0.7-31.3,6.7s-20,16-20,16
		L479.7,296.4z"/>
	<path class="st18" d="M579,348.4l-39.6-70.7c0,0-15-3.9-33,3.4c-18,7.3-25.3,21.3-25.3,21.3l7.6,46H579z"/>
	<path class="st5" d="M489.6,304.6c0.5,2.1-0.1,4.1-1.4,4.4s-2.7-1.2-3.2-3.4s0.1-4.1,1.4-4.4S489.1,302.4,489.6,304.6z"/>
</g>
<g>
	<g id="Layer_1-2">
		<path class="st19" d="M557.4,795h-59.2c-4.3,0-7.7-3.5-7.7-7.9c0,0,0,0,0,0l0,0c0-4.4,3.5-7.9,7.7-7.9h59.2"/>
		<path class="st20" d="M501,786.5h-9.8c-0.4,0-0.8-0.4-0.8-0.8s0.3-0.8,0.8-0.8h9.8c0.4,0,0.8,0.4,0.8,0.8S501.5,786.5,501,786.5z"
			/>
		<rect x="490.5" y="784" class="st21" width="66.9" height="1"/>
		<rect x="490.5" y="786.7" class="st21" width="66.9" height="1"/>
		<rect x="490.5" y="789.3" class="st21" width="66.9" height="1"/>
		<rect x="492.5" y="792" class="st21" width="64.9" height="1"/>
		<rect x="492.5" y="781.3" class="st21" width="64.9" height="1"/>
		<path class="st20" d="M532.2,790.4h-40.7c-0.4,0-0.8-0.4-0.8-0.8s0.3-0.8,0.8-0.8h40.7c0.4,0,0.8,0.4,0.8,0.8
			S532.7,790.4,532.2,790.4z"/>
		<path class="st5" d="M510.3,779.1h24.6l0,0l0,0c0,1.5-1.2,2.8-2.7,2.8l0,0H513C511.5,781.9,510.3,780.6,510.3,779.1L510.3,779.1
			L510.3,779.1L510.3,779.1z"/>
		<path class="st20" d="M557.4,796h-59.2c-4.8,0-8.8-4-8.8-9s3.9-9,8.7-9c0,0,0,0,0,0h59.2c0.6,0,1,0.5,1,1s-0.5,1-1,1h-59.2
			c-3.7,0-6.7,3.1-6.7,6.9s3,6.9,6.7,6.9h59.2c0.6,0,1,0.5,1,1S558,796,557.4,796L557.4,796z"/>
		<path class="st20" d="M912.1,774c-0.5,0-1-0.4-1-0.9l-3.8-35.4c-0.1-0.6,0.3-1.1,0.9-1.2c0.6-0.1,1.1,0.4,1.1,0.9l3.8,35.4
			c0.1,0.6-0.3,1.1-0.9,1.2L912.1,774z"/>
		<path class="st20" d="M906.5,753.5c-0.4,0-0.7-0.3-0.8-0.7l-1.2-10.6c0-0.4,0.3-0.8,0.7-0.9l3.2-0.4c0.4-0.1,0.8,0.3,0.9,0.7
			c0.1,0.4-0.2,0.8-0.7,0.9l-2.4,0.3l1.1,9.8C907.3,753.1,907,753.5,906.5,753.5L906.5,753.5z"/>
		<path class="st20" d="M916.8,772.9h-0.1c-0.6-0.1-1-0.6-0.9-1.2c0,0,0,0,0,0l4.2-35.4c0.1-0.6,0.6-1,1.1-0.9
			c0.6,0.1,1,0.6,0.9,1.2l0,0l-4.2,35.4C917.7,772.5,917.3,772.9,916.8,772.9z"/>
		<path class="st20" d="M928.1,772.9H928c-0.6-0.1-1-0.6-0.9-1.2c0,0,0,0,0,0l4.2-35.4c0.1-0.6,0.6-1,1.1-0.9s1,0.6,0.9,1.2l0,0
			l-4.2,35.4C929.1,772.5,928.7,772.9,928.1,772.9z"/>
		<rect x="907.9" y="756.2" class="st22" width="31.3" height="39.9"/>
		<rect x="908.9" y="756.9" class="st23" width="5.3" height="38.4"/>
		<rect x="928.5" y="756.9" class="st5" width="1.8" height="38.7"/>
		<rect x="931.8" y="756.9" class="st24" width="0.9" height="38.7"/>
		<rect x="934.6" y="756.9" class="st24" width="0.9" height="38.7"/>
		<path class="st20" d="M939.3,797.2h-31.3c-0.6,0-1-0.5-1-1v-40c0-0.6,0.5-1,1-1h31.3c0.6,0,1,0.5,1,1v40
			C940.3,796.7,939.8,797.2,939.3,797.2L939.3,797.2z M908.9,795.1h29.3v-37.9h-29.3L908.9,795.1z"/>
		<g class="st25">
			<path class="st26" d="M898.2,612.7h-0.1c-0.4,0-0.8-0.4-0.8-0.8s0.3-0.8,0.8-0.8h0.1c0.4,0,0.8,0.4,0.8,0.8
				S898.6,612.7,898.2,612.7z"/>
			<path class="st26" d="M903.8,612.7h-3.1c-0.4,0-0.8-0.4-0.8-0.8s0.3-0.8,0.8-0.8h1.5v-7.9h-24v7.9h14c0.4,0,0.8,0.4,0.8,0.8
				s-0.3,0.8-0.8,0.8h-15.5v-11.1h27V612.7z"/>
			<path class="st26" d="M896,612.7h-1.4c-0.4,0-0.8-0.4-0.8-0.8s0.3-0.8,0.8-0.8h1.4c0.4,0,0.8,0.4,0.8,0.8S896.4,612.7,896,612.7z
				"/>
			<path class="st26" d="M883.2,631.6h-6.4v-11.1h19c0.4,0,0.8,0.4,0.8,0.8s-0.3,0.8-0.8,0.8h-17.5v7.9h4.9c0.4,0,0.8,0.4,0.8,0.8
				S883.6,631.6,883.2,631.6z"/>
			<path class="st26" d="M888.2,631.6h-2.8c-0.4,0-0.8-0.4-0.8-0.8s0.3-0.8,0.8-0.8h2.8c0.4,0,0.8,0.4,0.8,0.8
				S888.6,631.6,888.2,631.6z"/>
			<path class="st26" d="M890.3,631.6L890.3,631.6c-0.5,0-0.8-0.4-0.8-0.8s0.3-0.8,0.8-0.8h0.1c0.4,0,0.8,0.4,0.8,0.8
				S890.7,631.6,890.3,631.6z"/>
			<path class="st26" d="M903.8,631.6h-11.3c-0.4,0-0.8-0.4-0.8-0.8s0.3-0.8,0.8-0.8h9.8v-7.9h-3.4c-0.4,0-0.8-0.4-0.8-0.8
				s0.3-0.8,0.8-0.8h5L903.8,631.6z"/>
			<path class="st26" d="M890.9,622.1h-27v-11.1h27V622.1z M865.4,620.6h24v-7.9h-24V620.6z"/>
		</g>
		<path class="st27" d="M582.2,783.8c-5.8,0-10.5-4.8-10.5-10.8s4.7-10.8,10.5-10.8s10.5,4.8,10.5,10.8l0,0
			C592.7,779,588,783.8,582.2,783.8z M582.2,767.5c-3,0-5.4,2.5-5.4,5.5s2.4,5.5,5.4,5.5s5.4-2.5,5.4-5.5l0,0
			C587.6,770,585.2,767.6,582.2,767.5L582.2,767.5z"/>
		<path class="st20" d="M582.2,785.1c-6.2,0-11.3-5.2-11.3-11.5s5-11.5,11.3-11.5c6.2,0,11.3,5.2,11.3,11.5S588.5,785.1,582.2,785.1
			z M582.2,763.6c-5.4,0-9.7,4.5-9.7,10s4.4,10,9.7,10s9.7-4.5,9.7-10S587.6,763.6,582.2,763.6L582.2,763.6z M582.2,779.9
			c-3.4,0-6.2-2.8-6.2-6.3s2.8-6.3,6.2-6.3c3.4,0,6.2,2.8,6.2,6.3S585.6,779.9,582.2,779.9z M582.2,768.8c-2.5,0-4.6,2.1-4.6,4.7
			s2.1,4.7,4.6,4.7s4.6-2.1,4.6-4.7S584.8,768.8,582.2,768.8z"/>
		<path class="st27" d="M550.4,750.3h28.7c1.5,0,2.8,1.3,2.8,2.9v38.8c0,1.6-1.2,2.9-2.8,2.9h-28.7c-1.5,0-2.8-1.3-2.8-2.9v-38.8
			C547.6,751.5,548.9,750.3,550.4,750.3z"/>
		<path class="st28" d="M582.2,759.1v34.4c0,1.6-1.2,2.9-2.8,2.9l0,0h-28.7c-1.5,0-2.8-1.3-2.8-2.8c0,0,0,0,0,0v-6.4
			c2.4,1.3,5.1,2,7.9,1.9c5.2-0.2,10.1-2.9,13.8-6.6c3.7-3.7,6.4-8.4,8.7-13.2C579.8,766,581.2,762.6,582.2,759.1z"/>
		<path class="st29" d="M876.8,794.9c0-6.9,5.4-12.4,12.1-12.4s12.1,5.6,12.1,12.4"/>
		<path class="st30" d="M901.1,794.9h-20c5.6-2.3,10.6-5.8,14.7-10.3C899.1,786.9,901.1,790.7,901.1,794.9z"/>
		<g class="st25">
			<path class="st26" d="M890.2,731.6h-6.4v-11.1h19c0.4,0,0.8,0.4,0.8,0.8s-0.3,0.8-0.8,0.8h-17.5v7.9h4.9c0.4,0,0.8,0.4,0.8,0.8
				S890.6,731.6,890.2,731.6z"/>
			<path class="st26" d="M895.3,731.6h-2.8c-0.4,0-0.8-0.4-0.8-0.8s0.3-0.8,0.8-0.8h2.8c0.4,0,0.8,0.4,0.8,0.8
				S895.7,731.6,895.3,731.6z"/>
			<path class="st26" d="M897.4,731.6L897.4,731.6c-0.5,0-0.8-0.4-0.8-0.8s0.3-0.8,0.8-0.8h0.1c0.4,0,0.8,0.4,0.8,0.8
				S897.8,731.6,897.4,731.6z"/>
			<path class="st26" d="M910.9,731.6h-11.3c-0.4,0-0.8-0.4-0.8-0.8s0.3-0.8,0.8-0.8h9.8v-7.9h-3.4c-0.4,0-0.8-0.4-0.8-0.8
				s0.3-0.8,0.8-0.8h5L910.9,731.6z"/>
			<path class="st26" d="M897.9,722.1h-27V711h27V722.1z M872.4,720.5h24v-7.9h-24L872.4,720.5z"/>
		</g>
		<g class="st25">
			<path class="st26" d="M530.4,737.2h-0.1c-0.4,0-0.8-0.4-0.8-0.8s0.3-0.8,0.8-0.8h0.1c0.4,0,0.8,0.4,0.8,0.8
				S530.9,737.2,530.4,737.2z"/>
			<path class="st26" d="M536,737.2h-3.1c-0.4,0-0.8-0.4-0.8-0.8s0.3-0.8,0.8-0.8h1.5v-7.9h-24v7.9h13.9c0.4,0,0.8,0.4,0.8,0.8
				s-0.3,0.8-0.8,0.8H509v-11.1h27V737.2z"/>
			<path class="st26" d="M528.2,737.2h-1.3c-0.4,0-0.8-0.4-0.8-0.8s0.3-0.8,0.8-0.8h1.4c0.4,0,0.8,0.4,0.8,0.8
				S528.6,737.2,528.2,737.2L528.2,737.2z"/>
			<path class="st26" d="M515.4,756.2H509v-11.1h19c0.4,0,0.8,0.4,0.8,0.8s-0.3,0.8-0.8,0.8h-17.5v7.9h4.9c0.4,0,0.8,0.4,0.8,0.8
				S515.8,756.2,515.4,756.2L515.4,756.2z"/>
			<path class="st26" d="M520.4,756.2h-2.8c-0.4,0-0.8-0.4-0.8-0.8s0.3-0.8,0.8-0.8h2.8c0.4,0,0.8,0.4,0.8,0.8
				S520.8,756.2,520.4,756.2L520.4,756.2z"/>
			<path class="st26" d="M522.5,756.2L522.5,756.2c-0.5,0-0.8-0.4-0.8-0.8s0.3-0.8,0.8-0.8h0.1c0.4,0,0.8,0.4,0.8,0.8
				S522.9,756.2,522.5,756.2z"/>
			<path class="st26" d="M536,756.2h-11.3c-0.4,0-0.8-0.4-0.8-0.8s0.3-0.8,0.8-0.8h9.8v-7.9h-3.4c-0.4,0-0.8-0.4-0.8-0.8
				s0.3-0.8,0.8-0.8h5L536,756.2z"/>
			<path class="st26" d="M523.1,746.7h-27v-11.1h27V746.7z M497.6,745.1h24v-7.9h-24V745.1z"/>
		</g>
		<g class="st25">
			<path class="st26" d="M563,637h-0.1c-0.4,0-0.8-0.4-0.8-0.8s0.3-0.8,0.8-0.8h0.1c0.4,0,0.8,0.4,0.8,0.8S563.4,637,563,637z"/>
			<path class="st26" d="M568.6,637h-3.1c-0.4,0-0.8-0.4-0.8-0.8s0.3-0.8,0.8-0.8h1.5v-7.9h-24v7.9H557c0.4,0,0.8,0.4,0.8,0.8
				s-0.3,0.8-0.8,0.8h-15.5v-11.1h27V637z"/>
			<path class="st26" d="M560.7,637h-1.4c-0.4,0-0.8-0.4-0.8-0.8s0.3-0.8,0.8-0.8h1.4c0.4,0,0.8,0.4,0.8,0.8S561.2,637,560.7,637z"
				/>
			<path class="st26" d="M547.9,655.9h-6.4v-11.1h19c0.4,0,0.8,0.4,0.8,0.8s-0.3,0.8-0.8,0.8h-17.5v7.9h4.9c0.4,0,0.8,0.4,0.8,0.8
				S548.4,655.9,547.9,655.9z"/>
			<path class="st26" d="M553,655.9h-2.8c-0.4,0-0.8-0.4-0.8-0.8s0.3-0.8,0.8-0.8l0,0h2.8c0.4,0,0.8,0.4,0.8,0.8
				S553.4,655.9,553,655.9z"/>
			<path class="st26" d="M555.1,655.9L555.1,655.9c-0.5,0-0.8-0.4-0.8-0.8s0.3-0.8,0.8-0.8h0.1c0.4,0,0.8,0.4,0.8,0.8
				S555.5,655.9,555.1,655.9L555.1,655.9z"/>
			<path class="st26" d="M568.6,655.9h-11.3c-0.4,0-0.8-0.4-0.8-0.8s0.3-0.8,0.8-0.8h9.8v-7.9h-3.4c-0.4,0-0.8-0.4-0.8-0.8
				s0.3-0.8,0.8-0.8h5L568.6,655.9z"/>
			<path class="st26" d="M555.6,646.4h-27v-11.1h27V646.4z M530.1,644.9h24V637h-24V644.9z"/>
		</g>
		<g class="st25">
			<path class="st26" d="M745.3,557.3h-0.1c-0.4,0-0.8-0.4-0.8-0.8s0.3-0.8,0.8-0.8h0.1c0.4,0,0.8,0.4,0.8,0.8
				S745.8,557.3,745.3,557.3L745.3,557.3z"/>
			<path class="st26" d="M750.9,557.3h-3.1c-0.4,0-0.8-0.4-0.8-0.8s0.3-0.8,0.8-0.8h1.5v-7.9h-24v7.9h13.9c0.4,0,0.8,0.4,0.8,0.8
				s-0.3,0.8-0.8,0.8h-15.5v-11.1h27V557.3z"/>
			<path class="st26" d="M743.1,557.3h-1.4c-0.4,0-0.8-0.4-0.8-0.8s0.3-0.8,0.8-0.8l0,0h1.4c0.4,0,0.8,0.4,0.8,0.8
				S743.6,557.3,743.1,557.3z"/>
			<path class="st26" d="M730.3,576.3h-6.4v-11.1h19c0.4,0,0.8,0.4,0.8,0.8s-0.3,0.8-0.8,0.8h-17.5v7.9h4.9c0.4,0,0.8,0.4,0.8,0.8
				S730.7,576.3,730.3,576.3z"/>
			<path class="st26" d="M735.3,576.3h-2.8c-0.4,0-0.8-0.4-0.8-0.8s0.3-0.8,0.8-0.8h2.8c0.4,0,0.8,0.4,0.8,0.8
				S735.7,576.3,735.3,576.3z"/>
			<path class="st26" d="M737.4,576.3L737.4,576.3c-0.5,0-0.8-0.4-0.8-0.8s0.3-0.8,0.8-0.8h0.1c0.4,0,0.8,0.4,0.8,0.8
				S737.9,576.3,737.4,576.3z"/>
			<path class="st26" d="M750.9,576.3h-11.3c-0.4,0-0.8-0.4-0.8-0.8s0.3-0.8,0.8-0.8h9.8v-7.9H746c-0.4,0-0.8-0.4-0.8-0.8
				s0.3-0.8,0.8-0.8h5L750.9,576.3z"/>
			<path class="st26" d="M738,566.8h-27v-11h27V566.8z M712.5,565.2h24v-7.9h-24V565.2z"/>
		</g>
		<path class="st29" d="M761.7,800.7H690c-2.6,0-4.7-2.2-4.7-4.9c0-0.6,0.1-1.2,0.3-1.8l13.3-34.1l26.9-7.6l26.9,7.6l13.3,34.1
			c1,2.5-0.2,5.3-2.7,6.3C762.8,800.6,762.3,800.7,761.7,800.7z"/>
		<polygon class="st30" points="758.2,774.1 694.2,774.1 694.8,769.7 757.6,769.7 		"/>
		<ellipse class="st30" cx="700.2" cy="774.7" rx="2.2" ry="2.3"/>
		<ellipse class="st30" cx="707" cy="777.8" rx="1.1" ry="1.2"/>
		<ellipse class="st30" cx="702.2" cy="782.1" rx="1.5" ry="1.5"/>
		<path class="st20" d="M761.7,801.7H690c-3.2,0-5.8-2.7-5.8-5.9c0-0.7,0.1-1.5,0.4-2.2l13.3-34.1c0.1-0.3,0.4-0.5,0.7-0.6l26.9-7.6
			c0.2-0.1,0.4-0.1,0.5,0l26.9,7.6c0.3,0.1,0.6,0.3,0.7,0.6l13.3,34.1c1.2,3-0.3,6.5-3.2,7.7C763.1,801.6,762.4,801.7,761.7,801.7
			L761.7,801.7z M699.6,760.8l-13.1,33.6c-0.8,1.9,0.1,4.2,2,5c0.4,0.2,0.9,0.3,1.4,0.3h71.6c2.1,0,3.7-1.7,3.7-3.8
			c0-0.5-0.1-1-0.3-1.4L752,760.8l-26.2-7.3L699.6,760.8z"/>
		<path class="st31" d="M611.1,589.6H837c4.8,0,8.8,4,8.8,9v163c0,4.7-3.7,8.5-8.3,8.5c0,0,0,0,0,0H610.7c-4.6,0-8.3-3.8-8.3-8.5
			v-163C602.3,593.6,606.2,589.6,611.1,589.6z"/>
		<path class="st32" d="M845.5,598.6v5.5c0-5-3.9-9-8.8-9H610.8c-4.8,0-8.8,4-8.8,9v-5.5c0-5,3.9-9,8.8-9h225.9
			C841.6,589.6,845.5,593.6,845.5,598.6C845.5,598.6,845.5,598.6,845.5,598.6z"/>
		<path class="st29" d="M845.8,740.7v20.9c0,4.7-3.7,8.5-8.3,8.5c0,0,0,0,0,0H610.7c-4.6,0-8.3-3.8-8.3-8.5v-20.9H845.8z"/>
		<rect x="602.4" y="740.2" class="st30" width="243.4" height="4.6"/>
		<path class="st33" d="M845.9,736.1v4.6H602.4c0,0-1.9-12.9,0.4-12.4C644.3,735.9,845.9,736.1,845.9,736.1z"/>
		<rect x="614.9" y="603.9" class="st34" width="218.6" height="124.5"/>
		<path class="st20" d="M602.4,686.4c-0.6,0-1-0.5-1-1v-62c0-0.6,0.5-1,1-1s1,0.5,1,1v62C603.5,686,603,686.4,602.4,686.4z"/>
		<path class="st20" d="M845.9,665.4c-0.6,0-1-0.5-1-1v-9.2c0-0.6,0.5-1,1-1s1,0.5,1,1v9.2C846.9,664.9,846.4,665.4,845.9,665.4z"/>
		<path class="st20" d="M845.9,649.8c-0.6,0-1-0.5-1-1v-17.3c0-0.6,0.5-1,1-1s1,0.5,1,1v17.3C846.9,649.4,846.4,649.8,845.9,649.8z"
			/>
		<path class="st20" d="M845.9,625.7c-0.6,0-1-0.5-1-1v-26c0-4.4-3.5-7.9-7.7-7.9H611.2c-4.3,0-7.7,3.6-7.7,7.9v18c0,0.6-0.5,1-1,1
			s-1-0.5-1-1v-18c0-5.5,4.4-10,9.8-10h225.9c5.4,0,9.8,4.5,9.8,10v26C846.9,625.2,846.4,625.7,845.9,625.7z"/>
		<path class="st20" d="M845.9,741.7H602.4c-0.6,0-1-0.5-1-1c0-0.6,0.5-1,1-1h243.4c0.6,0,1,0.5,1,1
			C846.9,741.3,846.4,741.7,845.9,741.7z"/>
		<rect x="614.9" y="723.3" class="st35" width="218.6" height="5.1"/>
		<polygon class="st36" points="708.5,728.4 703.5,728.4 734.2,603.9 739.2,603.9 		"/>
		<polygon class="st37" points="697.5,728.4 692.5,728.4 723.3,603.9 728.2,603.9 		"/>
		<polygon class="st5" points="730.8,728.4 715.6,728.4 746.3,603.9 761.5,603.9 		"/>
		<path class="st20" d="M614.9,656.9c-0.6,0-1-0.5-1-1v-12.1c0-0.6,0.5-1,1-1s1,0.5,1,1v12.1C615.9,656.4,615.4,656.9,614.9,656.9z"
			/>
		<ellipse class="st33" cx="813.6" cy="735" rx="1.3" ry="1.3"/>
		<ellipse class="st33" cx="816" cy="734.1" rx="0.4" ry="0.4"/>
		<ellipse class="st33" cx="814.1" cy="732.5" rx="0.4" ry="0.4"/>
		<ellipse class="st33" cx="810.5" cy="732.4" rx="0.9" ry="0.9"/>
		<ellipse class="st33" cx="809.2" cy="735.1" rx="0.8" ry="0.8"/>
		<ellipse class="st33" cx="807" cy="733.3" rx="0.4" ry="0.4"/>
		<ellipse class="st33" cx="807.9" cy="731.5" rx="0.5" ry="0.5"/>
		<ellipse class="st33" cx="804.1" cy="734.5" rx="0.8" ry="0.9"/>
		<ellipse class="st33" cx="818.9" cy="733.4" rx="0.5" ry="0.5"/>
		<ellipse class="st33" cx="817" cy="731.8" rx="0.3" ry="0.3"/>
		<ellipse class="st33" cx="819.3" cy="730.7" rx="0.5" ry="0.5"/>
		<ellipse class="st33" cx="816.9" cy="733" rx="0.4" ry="0.4"/>
		<ellipse class="st33" cx="815.1" cy="730.7" rx="0.4" ry="0.4"/>
		<ellipse class="st33" cx="812.6" cy="730.1" rx="0.6" ry="0.6"/>
		<ellipse class="st33" cx="813.1" cy="731.6" rx="0.1" ry="0.1"/>
		<ellipse class="st33" cx="812.5" cy="732.9" rx="0.2" ry="0.2"/>
		<ellipse class="st33" cx="818.9" cy="735.6" rx="0.8" ry="0.9"/>
		<ellipse class="st33" cx="822.3" cy="734.6" rx="0.6" ry="0.7"/>
		<ellipse class="st33" cx="825.5" cy="735.7" rx="1.3" ry="1.4"/>
		<ellipse class="st33" cx="829.6" cy="735.8" rx="1.4" ry="1.5"/>
		<ellipse class="st33" cx="832.2" cy="735.2" rx="0.6" ry="0.6"/>
		<ellipse class="st33" cx="829.8" cy="733.1" rx="0.2" ry="0.2"/>
		<ellipse class="st33" cx="826.7" cy="732" rx="0.5" ry="0.5"/>
		<ellipse class="st33" cx="824.7" cy="731.3" rx="0.5" ry="0.5"/>
		<ellipse class="st33" cx="822.9" cy="731.9" rx="0.7" ry="0.7"/>
		<ellipse class="st33" cx="821.1" cy="732.5" rx="0.5" ry="0.5"/>
		<ellipse class="st33" cx="825.9" cy="733.6" rx="0.3" ry="0.3"/>
		<ellipse class="st35" cx="788.1" cy="721.4" rx="2.4" ry="2.5"/>
		<ellipse class="st35" cx="792.7" cy="719.7" rx="0.7" ry="0.7"/>
		<ellipse class="st35" cx="789.2" cy="716.6" rx="0.7" ry="0.7"/>
		<ellipse class="st35" cx="782.2" cy="716.5" rx="1.7" ry="1.7"/>
		<ellipse class="st35" cx="779.8" cy="721.6" rx="1.5" ry="1.5"/>
		<ellipse class="st35" cx="775.6" cy="718.1" rx="0.8" ry="0.8"/>
		<ellipse class="st35" cx="777.3" cy="714.7" rx="0.9" ry="0.9"/>
		<ellipse class="st35" cx="770.1" cy="720.5" rx="1.6" ry="1.6"/>
		<ellipse class="st35" cx="798.3" cy="718.4" rx="1" ry="1"/>
		<ellipse class="st35" cx="794.6" cy="715.3" rx="0.6" ry="0.6"/>
		<ellipse class="st35" cx="798.9" cy="713.2" rx="1" ry="1"/>
		<ellipse class="st35" cx="794.4" cy="717.5" rx="0.7" ry="0.7"/>
		<ellipse class="st35" cx="791" cy="713.2" rx="0.8" ry="0.8"/>
		<ellipse class="st35" cx="786.2" cy="712.1" rx="1.1" ry="1.2"/>
		<ellipse class="st35" cx="787.1" cy="715" rx="0.2" ry="0.3"/>
		<ellipse class="st35" cx="786.1" cy="717.4" rx="0.4" ry="0.4"/>
		<ellipse class="st35" cx="798.3" cy="722.5" rx="1.6" ry="1.6"/>
		<ellipse class="st35" cx="804.6" cy="720.6" rx="1.2" ry="1.2"/>
		<ellipse class="st35" cx="810.8" cy="722.7" rx="2.6" ry="2.6"/>
		<ellipse class="st35" cx="818.6" cy="722.9" rx="2.7" ry="2.8"/>
		<ellipse class="st35" cx="823.5" cy="721.8" rx="1.2" ry="1.2"/>
		<ellipse class="st35" cx="819" cy="717.8" rx="0.4" ry="0.4"/>
		<ellipse class="st35" cx="813.1" cy="715.7" rx="0.9" ry="1"/>
		<ellipse class="st35" cx="809.2" cy="714.3" rx="0.9" ry="1"/>
		<ellipse class="st35" cx="805.9" cy="715.5" rx="1.3" ry="1.3"/>
		<ellipse class="st35" cx="802.5" cy="716.6" rx="0.9" ry="1"/>
		<ellipse class="st35" cx="811.6" cy="718.7" rx="0.6" ry="0.6"/>
		<ellipse class="st30" cx="639.3" cy="749" rx="1.1" ry="1.2"/>
		<path class="st20" d="M622.1,629.3c-0.1,0-0.2,0-0.3-0.1c-0.4-0.2-0.6-0.6-0.4-1c0,0,0,0,0,0l7.2-17c0.2-0.4,0.6-0.6,1-0.4
			c0.4,0.2,0.5,0.6,0.4,1l-7.2,17C622.7,629.1,622.4,629.3,622.1,629.3z"/>
		<path class="st20" d="M628.2,625.9c-0.1,0-0.2,0-0.3-0.1c-0.4-0.2-0.6-0.6-0.4-1c0,0,0,0,0,0l3.6-8.5c0.2-0.4,0.6-0.6,1-0.4
			s0.6,0.6,0.4,1l-3.6,8.5C628.8,625.7,628.5,625.9,628.2,625.9z"/>
		<ellipse class="st20" cx="626.9" cy="628.8" rx="1.2" ry="1.3"/>
		<path class="st20" d="M647.3,596.1h-24.4c-0.4,0-0.8-0.4-0.8-0.8s0.3-0.8,0.8-0.8h24.4c0.4,0,0.8,0.4,0.8,0.8
			S647.7,596.1,647.3,596.1L647.3,596.1z"/>
		<path class="st20" d="M657.6,596.1h-4.9c-0.4,0-0.8-0.4-0.8-0.8s0.3-0.8,0.8-0.8h4.9c0.4,0,0.8,0.4,0.8,0.8S658,596.1,657.6,596.1
			z"/>
		<path class="st20" d="M845.8,677.6c-0.6,0-1-0.5-1-1v-4.9c0-0.6,0.5-1,1-1s1,0.5,1,1v4.9C846.8,677.2,846.3,677.6,845.8,677.6z"/>
		<ellipse class="st30" cx="632.2" cy="746.5" rx="3.8" ry="3.9"/>
		<ellipse class="st30" cx="636.3" cy="754.1" rx="1.9" ry="1.9"/>
		<ellipse class="st30" cx="625.2" cy="750.4" rx="1.9" ry="1.9"/>
		<ellipse class="st5" cx="724" cy="756.1" rx="6.9" ry="7.1"/>
		<path class="st20" d="M724.2,765.5c-4.9,0.1-8.9-3.8-9.1-8.8s3.7-9.2,8.6-9.3c0.1,0,0.3,0,0.4,0c0.6,0,1,0.5,1,1c0,0.6-0.5,1-1,1
			c-3.7,0-6.8,3.1-6.8,7c0,3.8,3,6.9,6.8,6.9s6.8-3.1,6.8-7c0-1.3-0.3-2.5-1-3.6c-0.3-0.5-0.1-1.1,0.3-1.4s1.1-0.1,1.4,0.4
			c2.5,4.3,1.2,9.8-3,12.4C727.4,765,725.8,765.5,724.2,765.5z"/>
		<path class="st20" d="M691.4,794.6c-0.1,0-0.2,0-0.3-0.1c-0.4-0.1-0.6-0.6-0.5-1c0,0,0,0,0,0l1.9-5.2c0.2-0.4,0.6-0.6,1-0.5
			c0.4,0.2,0.6,0.6,0.4,1l-1.9,5.2C692,794.4,691.7,794.6,691.4,794.6z"/>
		<path class="st20" d="M695.1,784.4c-0.1,0-0.2,0-0.3,0c-0.4-0.2-0.6-0.6-0.4-1c0,0,0,0,0,0l1.1-3.1c0.1-0.4,0.6-0.6,1-0.5
			c0.4,0.1,0.6,0.6,0.5,1c0,0,0,0.1,0,0.1l-1.1,3.1C695.7,784.2,695.4,784.4,695.1,784.4z"/>
		<path class="st35" d="M664.6,725.7h-22.9c-1.3,0-2.3-1.1-2.3-2.4s1-2.4,2.3-2.4h22.9c1.3,0,2.3,1.1,2.3,2.4
			S665.9,725.7,664.6,725.7z"/>
		<path class="st32" d="M748.8,597.7h-22.9c-1.3,0-2.3-1.1-2.3-2.4s1-2.4,2.3-2.4h22.9c1.3,0,2.3,1.1,2.3,2.4S750,597.7,748.8,597.7
			z"/>
		<path class="st32" d="M799.6,597.7H789c-1.3,0-2.3-1.1-2.3-2.4s1-2.4,2.3-2.4h10.6c1.3,0,2.3,1.1,2.3,2.4S800.9,597.7,799.6,597.7
			z"/>
		<path class="st38" d="M500.6,795.6h445.6c3.8,0,6.9,3.2,6.9,7.1l0,0c0,3.9-3.1,7.1-6.9,7.1H500.6c-3.8,0-6.9-3.2-6.9-7.1l0,0
			C493.7,798.7,496.8,795.6,500.6,795.6z"/>
		<path class="st39" d="M953,802.9c0,3.9-3.1,7.1-6.9,7.1H500.6c-3.8,0-6.9-3.2-6.9-7.1l0,0c0-1.2,0.3-2.5,0.9-3.5
			c1.2,2.2,3.5,3.5,6,3.5h445.6c2.5,0,4.7-1.3,6-3.5C952.7,800.5,953,801.7,953,802.9z"/>
		<path class="st40" d="M574.2,799.8h-34.1c-1,0-1.8-0.8-1.8-1.8c0-1,0.8-1.8,1.8-1.8h34.1c1,0,1.8,0.8,1.8,1.8
			C576,799,575.2,799.8,574.2,799.8z"/>
		<path class="st40" d="M592.6,799.8h-8.5c-1,0-1.8-0.8-1.8-1.8c0-1,0.8-1.8,1.8-1.8h8.5c1,0,1.8,0.8,1.8,1.8
			C594.4,799,593.6,799.8,592.6,799.8z"/>
		<path class="st39" d="M832,804.5h-34.1c-1,0-1.8-0.8-1.8-1.8s0.8-1.8,1.8-1.8H832c1,0,1.8,0.8,1.8,1.8S833,804.5,832,804.5z"/>
		<path class="st39" d="M850.4,804.5h-8.5c-1,0-1.8-0.8-1.8-1.8s0.8-1.8,1.8-1.8h8.5c1,0,1.8,0.8,1.8,1.8S851.4,804.5,850.4,804.5z"
			/>
		<path class="st41" d="M705.9,809.7h-34.1c-1,0-1.8-0.8-1.8-1.8s0.8-1.8,1.8-1.8h34.1c1,0,1.8,0.8,1.8,1.8S706.9,809.7,705.9,809.7
			z"/>
		<path class="st41" d="M724.3,809.7h-8.5c-1,0-1.8-0.8-1.8-1.8s0.8-1.8,1.8-1.8h8.5c1,0,1.8,0.8,1.8,1.8S725.3,809.7,724.3,809.7z"
			/>
		<path class="st41" d="M531.8,809.7h-34.1c-1,0-1.8-0.8-1.8-1.8s0.8-1.8,1.8-1.8h34.1c1,0,1.8,0.8,1.8,1.8S532.8,809.7,531.8,809.7
			z"/>
		<path class="st41" d="M550.2,809.7h-8.5c-1,0-1.8-0.8-1.8-1.8s0.8-1.8,1.8-1.8h8.5c1,0,1.8,0.8,1.8,1.8S551.2,809.7,550.2,809.7
			L550.2,809.7z"/>
		<path class="st41" d="M929.8,809.7h-34.1c-1,0-1.8-0.8-1.8-1.8s0.8-1.8,1.8-1.8h34.1c1,0,1.8,0.8,1.8,1.8S930.8,809.7,929.8,809.7
			z"/>
		<path class="st41" d="M948.2,809.7h-8.5c-1,0-1.8-0.8-1.8-1.8s0.8-1.8,1.8-1.8h8.5c1,0,1.8,0.8,1.8,1.8S949.2,809.7,948.2,809.7z"
			/>
		<path class="st20" d="M946.1,810.7H500.6c-4.4,0-7.9-3.6-7.9-8.1c0-4.5,3.5-8.1,7.9-8.1h123.7c0.6,0,1,0.5,1,1c0,0.6-0.5,1-1,1
			H500.6c-3.2,0-5.9,2.7-5.9,6s2.6,6,5.9,6h445.6c3.2,0,5.9-2.7,5.9-6s-2.6-6-5.9-6H659.7c-0.6,0-1-0.5-1-1c0-0.6,0.5-1,1-1h286.5
			c4.4,0,7.9,3.6,7.9,8.1C954,807.1,950.5,810.7,946.1,810.7z"/>
		<path class="st20" d="M640.7,796.6h-7.4c-0.6,0-1-0.5-1-1c0-0.6,0.5-1,1-1h7.4c0.6,0,1,0.5,1,1
			C641.7,796.2,641.2,796.6,640.7,796.6z"/>
		<path class="st20" d="M651,796.6h-3.8c-0.6,0-1-0.5-1-1c0-0.6,0.5-1,1-1h3.8c0.6,0,1,0.5,1,1C652,796.2,651.6,796.6,651,796.6z"/>
		<path class="st20" d="M901.1,795.9c-0.6,0-1-0.5-1-1c0-6.3-5-11.4-11.1-11.4c-1.8,0-3.7,0.5-5.3,1.4c-0.5,0.3-1.1,0.1-1.4-0.4
			c-0.3-0.5-0.1-1.1,0.4-1.4c6.4-3.5,14.4-1.1,17.8,5.5c1,2,1.6,4.2,1.6,6.4C902.1,795.5,901.7,795.9,901.1,795.9z"/>
		<path class="st20" d="M876.8,795.9c-0.6,0-1-0.5-1-1c0-3.1,1-6.1,2.9-8.5c0.3-0.5,1-0.6,1.4-0.2s0.6,1,0.2,1.5c0,0,0,0.1-0.1,0.1
			c-1.6,2-2.5,4.5-2.5,7.1C877.9,795.5,877.4,795.9,876.8,795.9z"/>
		<rect x="557.7" y="750.4" class="st5" width="2.9" height="45.2"/>
		<rect x="562.6" y="750.4" class="st42" width="1.4" height="45.2"/>
		<path class="st20" d="M564.8,745.9c-0.4,0-0.8-0.4-0.8-0.8v-11.8c0-3.2,2.6-5.9,5.7-5.9c2.7-0.1,4.9-2.4,4.8-5.3
			c-0.1-2.7-2.2-4.8-4.8-4.9c-0.4,0-0.8-0.4-0.8-0.8s0.3-0.8,0.8-0.8c3.6,0.1,6.4,3.2,6.3,6.9c-0.1,3.5-2.9,6.4-6.3,6.5
			c-2.3,0-4.2,1.9-4.2,4.3v11.8C565.5,745.5,565.2,745.9,564.8,745.9z"/>
		<path class="st20" d="M558.5,740.7c-0.4,0-0.8-0.4-0.8-0.8v-11.6c0-0.4,0.3-0.8,0.8-0.8c0.4,0,0.8,0.4,0.8,0.8v11.6
			C559.3,740.4,558.9,740.7,558.5,740.7z"/>
		<path class="st20" d="M570.9,746.9c-0.4,0-0.8-0.4-0.8-0.8v-11.7c0-0.4,0.3-0.8,0.8-0.8s0.8,0.4,0.8,0.8v11.7
			C571.7,746.5,571.4,746.9,570.9,746.9z"/>
		<path class="st43" d="M573,764.4L573,764.4c-0.8,0-1.4-0.7-1.4-1.5l0,0v-12.3h2.9V763C574.4,763.8,573.8,764.4,573,764.4
			L573,764.4z"/>
		<path class="st43" d="M580.1,751.4c-0.1,1.4-1.2,2.5-2.6,2.5c-1.3-0.1-2.3-1.1-2.4-2.5"/>
		<path class="st44" d="M552.7,756.3L552.7,756.3c0.9,0,1.7,0.8,1.7,1.7v9.6c0,1-0.8,1.7-1.7,1.7h0c-0.9,0-1.7-0.8-1.7-1.7V758
			C551,757.1,551.8,756.3,552.7,756.3z"/>
		<path class="st33" d="M613.4,709.3c-0.7,0-1.3-0.6-1.3-1.3v-26.4c0-0.7,0.6-1.3,1.3-1.3c0.7,0,1.3,0.6,1.3,1.3v26.4
			C614.6,708.7,614.1,709.3,613.4,709.3C613.4,709.3,613.4,709.3,613.4,709.3z"/>
		<path class="st33" d="M834.7,651.5c-0.7,0-1.3-0.6-1.3-1.3v-26.4c0-0.7,0.6-1.3,1.3-1.3s1.3,0.6,1.3,1.3v26.4
			C836,650.9,835.4,651.5,834.7,651.5z"/>
		<path class="st33" d="M834.7,714.3c-0.7,0-1.3-0.6-1.3-1.3v-26.4c0-0.7,0.6-1.3,1.3-1.3s1.3,0.6,1.3,1.3V713
			C836,713.8,835.4,714.3,834.7,714.3z"/>
		<path class="st35" d="M831.6,689c-1,0-1.8-0.8-1.8-1.8v-26.4c0-1,0.8-1.8,1.8-1.8c1,0,1.8,0.8,1.8,1.8v26.4
			C833.4,688.2,832.6,689,831.6,689z"/>
		<path class="st35" d="M831.6,616.4c-1,0-1.8-0.8-1.8-1.8v-5.4c0-1,0.8-1.8,1.8-1.8c1,0,1.8,0.8,1.8,1.8v5.4
			C833.4,615.6,832.6,616.4,831.6,616.4z"/>
		<path class="st35" d="M616.5,678.7c-1,0-1.8-0.8-1.8-1.8v-5.4c0-1,0.8-1.8,1.8-1.8c1,0,1.8,0.8,1.8,1.8v5.4
			C618.3,677.8,617.5,678.7,616.5,678.7z"/>
		<path class="st30" d="M796.1,769.9h-5.3c-1,0-1.8-0.8-1.8-1.8s0.8-1.8,1.8-1.8h5.3c1,0,1.8,0.8,1.8,1.8S797,769.9,796.1,769.9
			L796.1,769.9z"/>
		<path class="st35" d="M616.5,718.3c-1,0-1.8-0.8-1.8-1.8v-5.4c0-1,0.8-1.8,1.8-1.8c1,0,1.8,0.8,1.8,1.8v5.4
			C618.3,717.5,617.5,718.3,616.5,718.3C616.5,718.3,616.5,718.3,616.5,718.3z"/>
		<path class="st35" d="M616.5,612.9c-1,0-1.8-0.8-1.8-1.8v-5.4c0-1,0.8-1.8,1.8-1.8c1,0,1.8,0.8,1.8,1.8v5.4
			C618.3,612.1,617.5,612.9,616.5,612.9z"/>
		<path class="st20" d="M833.4,729.2H614.9c-0.4,0-0.8-0.4-0.8-0.8v-66.8c0-0.4,0.3-0.8,0.8-0.8c0.4,0,0.8,0.4,0.8,0.8v66h217V604.7
			h-217v31.1c0,0.4-0.3,0.8-0.8,0.8c-0.4,0-0.8-0.4-0.8-0.8v-31.9c0-0.4,0.3-0.8,0.8-0.8h218.6c0.4,0,0.8,0.4,0.8,0.8v124.5
			C834.2,728.8,833.9,729.2,833.4,729.2C833.4,729.2,833.4,729.2,833.4,729.2z"/>
		<path class="st43" d="M565.9,751.1h2.6l0,0v6.3c0,0.7-0.6,1.3-1.3,1.3l0,0c-0.7,0-1.3-0.6-1.3-1.3V751.1L565.9,751.1z"/>
		<path class="st20" d="M579.4,796.4h-28.7c-2.1,0-3.8-1.7-3.8-3.9v-13.9c0-0.6,0.5-1,1-1c0.6,0,1,0.5,1,1v13.9c0,1,0.8,1.8,1.8,1.8
			h28.7c1,0,1.8-0.8,1.8-1.8v-38.8c0-1-0.8-1.8-1.8-1.8h-28.7c-1,0-1.8,0.8-1.8,1.8v11.1c0,0.6-0.5,1-1,1c-0.6,0-1-0.5-1-1v-11.1
			c0-2.2,1.7-3.9,3.8-3.9h28.7c2.1,0,3.8,1.7,3.8,3.9v38.8C583.2,794.6,581.5,796.4,579.4,796.4
			C579.4,796.4,579.4,796.4,579.4,796.4z"/>
		<path class="st20" d="M547.9,774.6c-0.6,0-1-0.5-1-1v-4.4c0-0.6,0.5-1,1-1c0.6,0,1,0.5,1,1v4.4C549,774.1,548.5,774.6,547.9,774.6
			z"/>
		<ellipse class="st45" cx="933.3" cy="732.1" rx="4" ry="4.1"/>
		<path class="st20" d="M933.3,737c-2.7,0-4.8-2.2-4.8-4.9c0-2.7,2.2-4.9,4.8-4.9c2.7,0,4.8,2.2,4.8,4.9
			C938.1,734.8,936,737,933.3,737z M933.3,728.7c-1.8,0-3.3,1.5-3.3,3.4c0,1.9,1.5,3.4,3.3,3.4s3.3-1.5,3.3-3.4c0,0,0,0,0,0
			C936.6,730.2,935.1,728.7,933.3,728.7C933.3,728.7,933.3,728.7,933.3,728.7L933.3,728.7z"/>
		<path class="st20" d="M925.1,752.5L925.1,752.5c-0.5,0-0.8-0.4-0.8-0.9c0,0,0,0,0,0l1.1-9.8l-2.4-0.3c-0.4-0.1-0.7-0.4-0.7-0.9
			c0.1-0.4,0.4-0.7,0.9-0.7l3.2,0.4c0.4,0.1,0.7,0.4,0.7,0.9l-1.2,10.6C925.8,752.2,925.5,752.5,925.1,752.5z"/>
		<path class="st5" d="M837.9,771.2h-11.3c-1.1,0-2.1-0.9-2.1-2.1s0.9-2.1,2.1-2.1h11.3c2.3,0,4.9-2.5,4.9-4.7v-6.5
			c0-1.2,0.9-2.1,2.1-2.1s2.1,0.9,2.1,2.1v6.5C846.9,766.8,842.4,771.2,837.9,771.2z"/>
		<path class="st5" d="M631.3,771.8h-11.3c-1.1,0-2.1-0.9-2.1-2.1s0.9-2.1,2.1-2.1h11.3c1.1,0,2.1,0.9,2.1,2.1
			S632.5,771.8,631.3,771.8z"/>
		<path class="st20" d="M837.5,771.1H610.8c-5.2,0-9.3-4.3-9.3-9.6v-69.6c0-0.6,0.5-1,1-1s1,0.5,1,1v69.6c0,4.1,3.3,7.5,7.3,7.5
			h226.8c4,0,7.3-3.3,7.3-7.5v-77.8c0-0.6,0.5-1,1-1s1,0.5,1,1v77.8C846.9,766.8,842.7,771.1,837.5,771.1z"/>
	</g>
</g>
<path class="st1" d="M521,643.9l-44-42.7c-0.5-0.4-1.2-0.4-1.6,0c-0.2,0.2-0.3,0.4-0.3,0.6l-0.5,9.8c0,0.6-0.3,1.1-0.7,1.5
	l-11.9,11.2c-0.6,0.3-0.4,1.5,0.2,1.3l11.3-4.7c0.9-0.2,1.8-0.1,2.6,0.2l34.5,18.4c0.2,0.1,0.3,0.3,0.3,0.5c0,0.4-0.2,0.7-0.6,0.7
	c-0.1,0-0.2,0-0.3,0l-35.4-14.1c-0.8-0.3-1.7-0.3-2.6-0.2l-10.5,1.8c-0.8,0.4-1,1.2,0,1.5l7.4,3.1c0.6,0.2,0.9,0.8,0.7,1.4
	c0,0,0,0,0,0l-5.3,15.7c-0.2,0.6,0.1,1.2,0.7,1.4c0.2,0.1,0.3,0.1,0.5,0.1l54.7-5.8c0.6,0,1.1-0.6,1-1.2
	C521.2,644.2,521.1,644,521,643.9L521,643.9z"/>
<path class="st46" d="M827.3,445.7l-33.5,51.4c-0.3,0.5-0.2,1.2,0.4,1.6c0.2,0.1,0.4,0.2,0.7,0.2l9.7-1.3c0.6-0.1,1.1,0.1,1.6,0.4
	l13.3,9.5c0.4,0.5,1.6,0.1,1.3-0.5l-6.8-10.2c-0.4-0.8-0.5-1.7-0.3-2.6l11.5-37.4c0.1-0.2,0.2-0.4,0.5-0.4c0.3-0.1,0.7,0.1,0.8,0.5
	c0,0.1,0,0.2,0,0.3l-7.1,37.4c-0.1,0.9,0,1.8,0.3,2.6l3.7,10c0.6,0.7,1.3,0.7,1.5-0.3l1.6-7.8c0.1-0.6,0.6-1,1.2-0.9c0,0,0,0,0,0
	l16.4,2.2c0.6,0.1,1.1-0.3,1.2-0.9c0-0.2,0-0.3,0-0.5l-16-52.6c-0.2-0.6-0.8-0.9-1.3-0.8C827.6,445.4,827.4,445.6,827.3,445.7
	L827.3,445.7z"/>
<g id="freepik--background-simple--inject-12">
	<path class="st2" d="M1071.6,374.3c9.1-29.6,13.9-60.3,14.3-91.3c0.5-31.9-3-66.3-24-90.2c-20.6-23.4-53.7-31.3-84.8-32.7
		c-12.6-0.5-25.5-0.2-37.5,3.8c-24.2,8.1-41.1,29.5-62.5,43.3c-41.4,26.6-97.3,23.4-137.1,52.4c-10.2,7.5-19.1,16.7-26.2,27.1
		c-29,41.5-31.3,99.1-9.1,144.7c22.1,45.6,66.6,78.7,115.8,90.8c49.2,12.2,102.3,4.1,147.9-18
		C1021.4,478.6,1054.5,429.2,1071.6,374.3z"/>
	<path class="st3" d="M1071.6,374.3c9.1-29.6,13.9-60.3,14.3-91.3c0.5-31.9-3-66.3-24-90.2c-20.6-23.4-53.7-31.3-84.8-32.7
		c-12.6-0.5-25.5-0.2-37.5,3.8c-24.2,8.1-41.1,29.5-62.5,43.3c-41.4,26.6-97.3,23.4-137.1,52.4c-10.2,7.5-19.1,16.7-26.2,27.1
		c-29,41.5-31.3,99.1-9.1,144.7c22.1,45.6,66.6,78.7,115.8,90.8c49.2,12.2,102.3,4.1,147.9-18
		C1021.4,478.6,1054.5,429.2,1071.6,374.3z"/>
</g>
<g id="freepik--Window--inject-12">
	<path class="st5" d="M998.1,182.7v208.5c0,6.2-5,11.2-11.2,11.2c0,0,0,0,0,0h-278c-6.2,0-11.2-5-11.2-11.2c0,0,0,0,0-0.1V182.7
		c0-6.2,5-11.2,11.2-11.2c0,0,0,0,0,0h278C993.1,171.4,998.1,176.4,998.1,182.7C998.1,182.6,998.1,182.6,998.1,182.7z"/>
	<path class="st47" d="M998.1,189.1v202c0,6.2-5,11.2-11.2,11.2c0,0,0,0,0,0h-278c-1.1,0-2.1-0.1-3.1-0.4L998.1,189.1z"/>
	<path class="st48" d="M998.1,189.1v202c0,6.2-5,11.2-11.2,11.2c0,0,0,0,0,0h-278c-1.1,0-2.1-0.1-3.1-0.4L998.1,189.1z"/>
	<path class="st49" d="M921.1,301.9l15.2-6.8L933,277l-16.8-1.3c-2.1-5.6-4.9-10.9-8.4-15.8l5.2-8.9l3.3-5.7l-13-12.9l-14.5,8.7
		c-8.4-5.8-17.8-9.7-27.8-11.5l-4.2-16.7h-18.4l-4.3,16.8c-5.7,1.1-11.2,2.9-16.5,5.3l-13.2-11.4l-15,10.3l6.3,16.3
		c-4,4.1-7.4,8.7-10.3,13.7l-17.3-1.8l-6.2,17.3l14.3,9.7c-0.7,4.1-1,8.2-1,12.3c-0.1,1.7-0.1,3.4,0,5.1l-15.1,8.5l4.8,17.7H782
		c1.6,3.5,3.6,6.9,5.7,10.1c1.1,1.6,2.3,3.3,3.5,4.8l-7.4,15.3l14.1,11.9l13.6-10.2c5.2,3,10.7,5.3,16.5,7l2.7,16.5l18.4,1.6
		l5.5-15.5c6-0.6,11.9-1.9,17.6-3.9L884,382l16-9.2l-4.4-15.9c4.6-3.9,8.8-8.3,12.3-13.3l16.2,2.9l7.8-16.7l-12.7-10.2
		C920.5,313.8,921.1,307.9,921.1,301.9z M879.1,301.9c0,17.2-14,31.2-31.2,31.2c-17.2,0-31.2-14-31.2-31.2c0-17.2,14-31.2,31.2-31.2
		c8.2,0,16.2,3.3,22,9.1c0.6,0.6,1.1,1.1,1.6,1.8c4.9,5.6,7.6,12.8,7.6,20.2V301.9z"/>
	<path class="st50" d="M919.1,319.6l12.7,10.2l-7.8,16.7l-16.2-2.9c-3.5,4.9-7.6,9.4-12.3,13.3l4.4,15.9l-16,9.2l-11.7-11.6
		c-5.7,2-11.6,3.3-17.6,3.9l-5.5,15.5l-18.4-1.6l-2.7-16.5c-5.8-1.6-11.3-4-16.5-7l-13.6,10.2L783.9,363l7.3-15.2
		c-1.2-1.6-2.4-3.2-3.6-4.8l33.6-24.6c9.1,14.7,28.3,19.2,43,10.1c9.2-5.7,14.8-15.7,14.8-26.5v-0.2c0-7.4-2.7-14.6-7.6-20.2
		l41.6-30.5l-5.2,8.9c3.5,4.9,6.3,10.2,8.3,15.8l16.7,1.3l3.3,18.1l-15.2,6.8C921.2,307.9,920.5,313.8,919.1,319.6z"/>
	<path class="st51" d="M984.2,253.8l0.8-0.4c0.9-0.4,1.4-1.3,1.2-2.3l-0.2-0.9c-0.2-0.9-0.9-1.7-1.9-1.7l-0.9-0.1
		c-0.7,0-1.4-0.5-1.7-1.1c-0.3-0.5-0.5-1-0.8-1.5c-0.4-0.6-0.4-1.4,0-2.1l0.5-0.8c0.5-0.8,0.3-1.9-0.3-2.5l-0.7-0.7
		c-0.7-0.7-1.7-0.8-2.5-0.3l-0.8,0.5c-0.6,0.4-1.4,0.4-2.1,0c-1.3-0.8-2.7-1.3-4.2-1.7c-0.7-0.2-1.3-0.8-1.5-1.5l-0.2-1
		c-0.2-1-1.1-1.6-2.1-1.6h-0.9c-1,0-1.8,0.6-2.1,1.6l-0.3,1c-0.2,0.7-0.7,1.3-1.5,1.5c-0.5,0.1-1,0.3-1.5,0.5
		c-0.7,0.3-1.5,0.1-2.1-0.4l-0.8-0.7c-0.7-0.6-1.8-0.7-2.5-0.1l-0.7,0.5c-0.8,0.5-1.1,1.6-0.8,2.5l0.4,1c0.3,0.7,0.1,1.5-0.3,2.1
		c-0.3,0.4-0.6,0.8-0.9,1.2c-0.4,0.6-1.2,1-1.9,0.9l-1-0.1c-1-0.1-1.9,0.5-2.2,1.4l-0.3,0.9c-0.3,0.9,0,1.9,0.8,2.4l1,0.7
		c0.6,0.4,0.9,1.1,0.9,1.9c-0.1,0.5-0.1,1.1-0.1,1.6l0,0c0,0.7-0.4,1.4-1,1.8l-1,0.5c-0.9,0.5-1.3,1.5-1,2.4l0.2,0.9
		c0.2,0.9,1.1,1.6,2.1,1.5h1c0.7,0,1.4,0.4,1.8,1c0.3,0.5,0.6,1,0.9,1.4c0.4,0.6,0.5,1.4,0.2,2.1l-0.4,0.9c-0.4,0.9-0.2,1.9,0.5,2.5
		l0.7,0.6c0.7,0.6,1.8,0.7,2.6,0.1l0.7-0.5c0.6-0.4,1.4-0.5,2.1-0.2c0.5,0.3,1,0.5,1.6,0.7c0.7,0.3,1.2,0.9,1.3,1.6l0.2,0.9
		c0.2,0.9,0.9,1.7,1.9,1.7l0.9,0.1c0.9,0.1,1.8-0.5,2.1-1.4l0.3-0.8c0.3-0.7,0.9-1.2,1.6-1.4c0.6-0.1,1.2-0.2,1.7-0.4
		c0.7-0.2,1.5,0,2,0.5l0.6,0.6c0.7,0.7,1.7,0.8,2.5,0.3l0.8-0.5c0.8-0.5,1.3-1.4,1-2.4l-0.2-0.8c-0.2-0.7,0-1.5,0.5-2.1
		c0.4-0.4,0.8-0.9,1.2-1.3c0.5-0.6,1.3-0.9,2-0.7l0.8,0.1c0.9,0.2,1.9-0.3,2.3-1.2l0.4-0.9c0.4-0.9,0.2-1.9-0.6-2.5l-0.6-0.5
		c-0.6-0.5-0.9-1.2-0.8-1.9c0.1-0.6,0.2-1.2,0.2-1.8C983.1,254.7,983.5,254.1,984.2,253.8z M976.8,254.3c0,5.8-4.7,10.4-10.4,10.4
		c-5.8,0-10.4-4.7-10.4-10.4c0-5.8,4.7-10.4,10.4-10.4l0,0C972.1,243.9,976.7,248.5,976.8,254.3L976.8,254.3z"/>
	<path class="st47" d="M998.1,182.7v0.6H697.7v-0.6c0-6.2,5-11.2,11.2-11.2c0,0,0,0,0,0h278C993.1,171.4,998.1,176.4,998.1,182.7
		C998.1,182.6,998.1,182.6,998.1,182.7z"/>
	<path class="st52" d="M998.1,182.7v208.5c0,6.2-5,11.2-11.2,11.2c0,0,0,0,0,0h-278c-6.2,0-11.2-5-11.2-11.2c0,0,0,0,0,0V182.7
		c0-6.2,5-11.2,11.2-11.2c0,0,0,0,0,0h278C993.1,171.4,998.1,176.4,998.1,182.7C998.1,182.6,998.1,182.6,998.1,182.7z"/>
	<line class="st52" x1="697.7" y1="182.7" x2="998.1" y2="182.7"/>
	<path class="st2" d="M722.7,177.3c0,1.3-1,2.3-2.3,2.3s-2.3-1-2.3-2.3c0-1.3,1-2.3,2.3-2.3l0,0
		C721.7,175.1,722.7,176.1,722.7,177.3z"/>
	<path class="st2" d="M733.5,177.3c0,1.3-1,2.3-2.3,2.3s-2.3-1-2.3-2.3s1-2.3,2.3-2.3c0,0,0,0,0,0
		C732.5,175.1,733.5,176.1,733.5,177.3z"/>
	<path class="st2" d="M744.3,177.3c0,1.3-1,2.3-2.3,2.3s-2.3-1-2.3-2.3c0-1.3,1-2.3,2.3-2.3l0,0
		C743.2,175.1,744.3,176.1,744.3,177.3z"/>
	<path class="st53" d="M895.9,301.9c0,26.4-21.4,47.7-47.7,47.7c-26.4,0-47.7-21.4-47.7-47.7s21.4-47.7,47.7-47.7l0,0l0,0
		c26.2,0,47.6,21.2,47.7,47.4V301.9z"/>
</g>
<g id="freepik--Graphics--inject-12">
	<path class="st54" d="M903.2,194.3h169.9c6.2,0,11.2,5,11.2,11.2v37.7c0,6.2-5,11.2-11.2,11.2H903.2c-6.2,0-11.2-5-11.2-11.2v-37.7
		C892,199.4,897,194.3,903.2,194.3z"/>
	<line class="st55" x1="925.6" y1="224.2" x2="1056.7" y2="224.2"/>
	<polyline class="st55" points="921.5,224.2 942.2,209.6 995,209.6 1016.5,224.2 	"/>
	<path class="st51" d="M1020.5,224.2c0,2.3-1.8,4.1-4.1,4.1c-2.3,0-4.1-1.8-4.1-4.1s1.8-4.1,4.1-4.1c0,0,0,0,0,0
		C1018.7,220.1,1020.5,221.9,1020.5,224.2z"/>
	<circle class="st51" cx="942.2" cy="209.6" r="4.1"/>
	<path class="st51" d="M999,209.6c0,2.3-1.8,4.1-4.1,4.1c-2.3,0-4.1-1.8-4.1-4.1c0-2.3,1.8-4.1,4.1-4.1c0,0,0,0,0,0
		C997.2,205.5,999,207.3,999,209.6z"/>
	<polyline class="st55" points="921.5,224.2 942.2,238.7 1039.4,238.7 1056.7,224.2 	"/>
	<path class="st51" d="M978,238.7c0,2.3-1.8,4.1-4.1,4.1c-2.3,0-4.1-1.8-4.1-4.1c0-2.3,1.8-4.1,4.1-4.1l0,0
		C976.1,234.7,978,236.5,978,238.7z"/>
	<path class="st51" d="M946.3,238.7c0,2.3-1.8,4.1-4.1,4.1c-2.3,0-4.1-1.8-4.1-4.1c0-2.3,1.8-4.1,4.1-4.1l0,0
		C944.5,234.7,946.3,236.5,946.3,238.7z"/>
	<path class="st51" d="M1043.5,238.7c0,2.3-1.8,4.1-4.1,4.1c-2.3,0-4.1-1.8-4.1-4.1c0-2.3,1.8-4.1,4.1-4.1l0,0
		C1041.6,234.7,1043.5,236.5,1043.5,238.7z"/>
	<circle class="st51" cx="1056.7" cy="224.2" r="4.1"/>
	<path class="st51" d="M925.6,224.2c0,2.3-1.8,4.1-4.1,4.1c-2.3,0-4.1-1.8-4.1-4.1s1.8-4.1,4.1-4.1c0,0,0,0,0,0
		C923.8,220.1,925.6,221.9,925.6,224.2z"/>
	<path class="st54" d="M704.5,321h97.9c6.2,0,11.2,5,11.2,11.2v97.9c0,6.2-5,11.2-11.2,11.2h-97.9c-6.2,0-11.2-5-11.2-11.2v-97.9
		C693.2,326.1,698.3,321,704.5,321z"/>
	<polyline class="st52" points="738.4,389.7 722.8,420 793.4,420 	"/>
	<polyline class="st52" points="793.4,344 760.4,365.9 793.4,375.8 	"/>
	<rect x="785.6" y="336.2" class="st51" width="15.6" height="15.6"/>
	<rect x="785.6" y="368" class="st51" width="15.6" height="15.6"/>
	<rect x="752.6" y="358.1" class="st51" width="15.6" height="15.6"/>
	<rect x="730.6" y="381.9" class="st51" width="15.6" height="15.6"/>
	<rect x="715" y="412.2" class="st51" width="15.6" height="15.6"/>
	<rect x="785.6" y="412.2" class="st51" width="15.6" height="15.6"/>
	<path class="st54" d="M647.4,273.9h97.9c6.2,0,11.2,5,11.2,11.2V383c0,6.2-5,11.2-11.2,11.2h-97.9c-6.2,0-11.2-5-11.2-11.2v-97.9
		C636.2,278.9,641.2,273.9,647.4,273.9z"/>
	<rect x="648.9" y="285.5" class="st2" width="80" height="6.2"/>
	<rect x="648.9" y="295.7" class="st2" width="46.2" height="6.2"/>
	<rect x="648.9" y="306" class="st2" width="26.9" height="6.2"/>
	<rect x="648.9" y="316.2" class="st2" width="44.3" height="6.2"/>
	<rect x="648.9" y="326.4" class="st2" width="69.1" height="6.2"/>
	<rect x="648.9" y="336.6" class="st2" width="46.2" height="6.2"/>
	<rect x="648.9" y="346.8" class="st2" width="32.3" height="6.2"/>
	<rect x="648.9" y="357" class="st2" width="52.2" height="6.2"/>
	<rect x="648.9" y="367.2" class="st2" width="63.3" height="6.2"/>
	<rect x="648.9" y="377.4" class="st2" width="80" height="6.2"/>
	<rect x="648.9" y="285.5" class="st56" width="80" height="6.2"/>
	<rect x="648.9" y="295.7" class="st56" width="46.2" height="6.2"/>
	<rect x="648.9" y="306" class="st56" width="26.9" height="6.2"/>
	<rect x="648.9" y="316.2" class="st56" width="44.3" height="6.2"/>
	<rect x="648.9" y="326.4" class="st56" width="69.1" height="6.2"/>
	<rect x="648.9" y="336.6" class="st56" width="46.2" height="6.2"/>
	<rect x="648.9" y="346.8" class="st56" width="32.3" height="6.2"/>
	<rect x="648.9" y="357" class="st56" width="52.2" height="6.2"/>
	<rect x="648.9" y="367.2" class="st56" width="63.3" height="6.2"/>
	<rect x="648.9" y="377.4" class="st56" width="80" height="6.2"/>
	<path class="st54" d="M700.5,263.3h29.1c2.9,0,5.3,2.4,5.3,5.3l0,0v5.3l0,0h-39.7l0,0v-5.3C695.2,265.7,697.5,263.3,700.5,263.3
		C700.5,263.3,700.5,263.3,700.5,263.3z"/>
	<path class="st51" d="M680.8,263.3h28.8c3,0,5.5,2.5,5.5,5.5v5.1l0,0h-39.8l0,0v-5.1C675.3,265.8,677.7,263.3,680.8,263.3
		C680.7,263.3,680.8,263.3,680.8,263.3z"/>
	<path class="st54" d="M658.6,263.3h29.5c2.8,0,5.1,2.3,5.2,5.1v5.4l0,0h-39.8l0,0v-5.4C653.5,265.6,655.8,263.3,658.6,263.3z"/>
</g>
<g id="freepik--Table--inject-12">
	<line class="st52" x1="1033.4" y1="483.9" x2="1055.3" y2="483.9"/>
	<line class="st52" x1="688.9" y1="483.9" x2="1021.9" y2="483.9"/>
	<g id="freepik--Coffee--inject-189--inject-12">
		<path class="st57" d="M1027.4,471.1c0,0,3.9-3.2,5.7,0.3c1.6,3-2.2,6.4-6.6,6.4v2.5c0,0,9.3,0.3,10-7.6c0.7-7.9-9.2-5.7-9.2-5.7
			L1027.4,471.1z"/>
		<polygon class="st57" points="1027.1,483.8 1008.5,483.8 1005.7,460.4 1029.9,460.4 		"/>
		<path class="st58" d="M1005.7,459.3h24.2c0.7,0,1.3,0.6,1.3,1.3v0.1c0,0.7-0.6,1.3-1.3,1.3h-24.2c-0.7,0-1.3-0.6-1.3-1.3v-0.1
			C1004.4,459.9,1005,459.3,1005.7,459.3z"/>
	</g>
	<path class="st52" d="M1014.6,456.7c0,0,8.6-5.1,5.8-11.1s-12.3-9.8-12.3-19c0-7.9,8.4-10.9,13.9-14"/>
	<path class="st52" d="M1017.4,418.3c-4.7,3.2-5.9,9.6-2.7,14.3c0,0,0,0,0,0"/>
	<path class="st52" d="M1022.1,441.6c1.7,3.3,2.2,7.1,1.3,10.7"/>
	<path class="st58" d="M792.3,481.9c0,0-0.4-6.7-6.3-9.1c-5.9-2.4-9.1-1.4-22.3,2.2c-8.3,2.2-16.9,3.5-25.5,4v3L792.3,481.9z"/>
	<path class="st58" d="M792.1,481.9c0,0,0.4-6.7,6.3-9.1c5.9-2.4,9.1-1.4,22.3,2.2c8.4,2.2,16.9,3.5,25.5,3.9v3L792.1,481.9z"/>
	<rect x="736.8" y="480.8" class="st59" width="111.7" height="2.2"/>
	<path class="st52" d="M795,481.8c1.1-3.2,3.5-5.8,6.6-7.1"/>
	<path class="st52" d="M798.3,481.3c1.6-2.8,4.3-4.7,7.4-5.3c3.7-0.7,7.4,0.6,10.9,2c3.5,1.4,9.6,3.3,13.3,3.3"/>
	<path class="st52" d="M759.7,480.7c3.7-0.4,7.3-1.3,10.8-2.7c2.1-1,4.2-1.8,6.4-2.5c2.2-0.7,4.6-0.4,6.7,0.7
		c0.9,0.6,1.7,1.3,2.3,2.1c0.9,1.1,1.6,2.3,2.2,3.6"/>
	<path class="st52" d="M780.1,477.7c1.2,0.2,2.3,0.7,3.2,1.6c0.8,0.9,1.5,1.9,2.1,2.9"/>
</g>
<g id="freepik--Character--inject-12">
	<path class="st60" d="M876.9,480.9c-4.1,1.9-8.5,2.9-13,3c-6.9,0-21-14.3-21-14.3s-0.5-1.5,0.6-7.3c1.1-5.8,11.4-58.6,11.4-58.6
		s1.2-12.3,8.2-19.9c7-7.6,20.7-10.2,20.7-10.2s30.3-13.2,47.4-9.1c17,6.8,35.6,13.6,41.8,18.9c6.2,5.3,21.4,48,26.7,69.9
		c0,0-11.6,24.7-22.5,31.6c-10.8,6.9-37,4.7-37,4.7L876.9,480.9z"/>
	<path class="st56" d="M873,437.9l-4.4-58.3c-5.8,2.4-10.1,7.4-11.5,13.6c-2.3,10.4-16,74.6-14.3,76.3s10.7,9.5,10.7,9.5
		s9.6,8.3,19.5,3.3S873,437.9,873,437.9z"/>
	<path class="st56" d="M916.6,385.1c-0.5,1.7-2.7,2.3-4.5,2.3c-5.2,0.1-10.3-1.8-14.3-5.2c-0.7-0.6-13.6,7.3-15.1,8.1
		c-2.3,1.3-4.6,2.6-7,3.8c-2.2,1.1-4.3,1.6-5.8,3.8c-1,1.6-1.7,3.4-2.1,5.2c-3.1,10.2-6.4,20.4-9.3,30.7c-2.5,8.9-5.8,18.8-5.6,28.1
		c0,0.7,0,1.3,0.1,2c2,12,23.8,16.9,23.8,16.9s-7.7,4.7-13,3c-5.3-1.7-17.6-8.8-21.5-15.4l10.7-56c0,0-0.1-27,19.3-35
		c19.5-8,27.1-9.2,27.1-9.2L916.6,385.1z"/>
	<path class="st56" d="M988.4,473.2c0,0,8.5-9.4,11.3-19.9c0,0-13-42.9-16.4-51s-8.9-17.2-12.7-21.1l-6.2,88.4l-1.3,18.6
		c0,0,7,0.3,11.9-2C979.7,483.9,988.4,473.2,988.4,473.2z"/>
	<path class="st52" d="M963,488.2l7.5-107c0,0-36.5-17-46-18.6c-9.5-1.6-55.9,16.6-55.9,16.6l6.7,102.6"/>
	<path class="st5" d="M897.3,310.3l-3.7,17.9c0,0-4.8-3.4-5.8,0.4c-1,3.8,2.1,9.1,8.1,9.4c0,0,1.6,8.1,7,13.6c2.5,2.7,5.2,5.2,8,7.6
		c0,0,2.1,13.6,9,14.1s8.2-5.7,9.6-14.3c0,0,6-10.3,7.7-15.9c0,0,7.3-5.1,2.4-12.5c0,0,2.4-17.8-1.8-20.8S904.6,308.6,897.3,310.3z"
		/>
	<path class="st5" d="M919.6,375c0,0-2.3,11.6-3.8,11.9s-7.1-5.1-12.1-11.9s-4.2-6.8-4.2-6.8s2.3-8.9,4.2-10.2
		c1.9-1.3,8.8-1.1,8.8-1.1l15-0.6c0,0,5-0.7,8.1,1.3c3.1,2,4.6,10.6,4.6,10.6s-9,16.6-16.3,18.7C922.1,383,920.7,379,919.6,375z"/>
	<line class="st55" x1="870.4" y1="462.4" x2="872.4" y2="434.5"/>
	<path class="st2" d="M940.1,315.5c0,0-8.5,3.3-16,2.7c0,0-8,8-18.1,3.3c0,0-9.2,24.9,11.9,41.1c-10.8-4.1-19-13.2-21.9-24.4
		c0,0-6,0.9-8.1-8c0,0-1.7-3.5,6.2-3.5l-0.3-17.3l20.3,4.1l14.5-2.1L940.1,315.5z"/>
	<path class="st61" d="M940.1,315.5c0,0-8.5,3.3-16,2.7c0,0-8,8-18.1,3.3c0,0-7.4,26.6,11,40.7c0,0-16.7-5.8-21-24
		c0,0-5.9-0.6-8.1-8c0,0-1.7-3.5,6.2-3.5l-0.3-17.3l20.3,4.1l14.5-2.1L940.1,315.5z"/>
	<path class="st52" d="M916.9,349.9c0.7,0.5,1.4,1,2.1,1.5c0.5,0.3,1.2,0.5,1.5,0.1c0.1-0.2,0.2-0.4,0.2-0.6
		c0.3-4.9-0.8-9.9-0.1-14.7"/>
	<path class="st62" d="M923.8,333.4c0,0,2.4-5.4,8.7-0.5"/>
	<path class="st62" d="M915.9,334.3c0,0-4.6-5.7-10.3,0.2"/>
	<path class="st52" d="M909.7,358.6c0,0,2.5,14.7,11.1,15.1c7,0.4,8.4-11.8,8.7-16.1"/>
	<path class="st52" d="M894.8,329.9c0,0-3.8-4.5-6.4-2.3s1.3,12,7.5,10.5"/>
	<path class="st52" d="M911.3,351.8c1.9,2.3,4.5,3.9,7.3,4.5"/>
	<ellipse class="st47" cx="910.8" cy="341.2" rx="1" ry="2.1"/>
	<path class="st47" d="M927.9,341.2c0,1.2-0.5,2.1-1,2.1s-1-0.9-1-2.1s0.4-2.1,1-2.1S927.9,340,927.9,341.2z"/>
	<path class="st52" d="M919.8,373.6c0,0-2.4,13.1-4,13.4c-1.6,0.3-13.9-10.9-16.3-18.7c0,0,2.6-10.3,5-10.6c1.1-0.2,2.4-0.4,3.5-0.5
		"/>
	<path class="st52" d="M919.8,373.6c0,0,2.3,13.1,3.9,13.4s13.9-10.9,16.3-18.7c0,0-2.9-10.2-5.2-11c-1.4-0.5-2.9-0.9-4.4-1.2"/>
	<path class="st47" d="M897.1,341.4c1.6,2.7,3.5-6.9,2.7-10c-0.6-2-1.6-3.9-1.8-6c-0.1-2.3,1-4.5,1.9-6.7s1.3-4.8,0-6.8
		c4.5,3.2,9.9,5.1,15.4,5.5c1.4,0.2,2.9,0.1,4.2-0.3c1.4-0.5,2.4-1.6,2.7-3c5.2,0.7,10.4,1.3,15.5,0.6c4.3-0.6,11.1-1.7,13.3-6.1
		c3.3-6.5-5.1-13.2-10.1-15.5c-12-5.5-28.2-6.4-39.1,2.2c-1.1,1-2.3,1.9-3.5,2.7c-2.4,1.5-7.8,2.7-9.7,4.8
		c-2.6,2.8,0.7,24.5,0.7,24.5s4.2-1.9,5.9,4.5C896.5,336.2,895.5,338.6,897.1,341.4z"/>
	<path class="st47" d="M936.4,313.3c-0.1,0.3-0.1,0.5-0.1,0.8c-0.1,2.5,0.2,4.9,0.9,7.3c0.3,1.1,0.7,2.1,0.8,3.2
		c0.4,2.6,0.4,5,2.3,7.1c0,0,3.6-12.7,2.2-21.8c-0.2-1-0.5-3.7-2.1-3.2c-1.2,0.4-2,2.4-2.5,3.4C937.2,311.1,936.7,312.2,936.4,313.3
		z"/>
	<path class="st52" d="M886.2,301.3c3.3-2.3,7.4-2.8,11.2-1.5c2.9-5.2,7-9.6,11.8-13"/>
	<path class="st63" d="M901.8,298.3c0,0,19.6,13.9,31.5,10.5c11.9-3.4,8.5-13.7,8.5-13.7"/>
	<path class="st63" d="M903.7,295.9c0,0,24.6,11.3,28.8-4.7"/>
	<path class="st47" d="M909.7,358.6c0,0,4.7,9.1,8.3,8.9c3.7-0.1,10.4-9.9,10.4-9.9s-3.6,4.7-9.1,5.2
		C915.6,363,909.7,358.6,909.7,358.6z"/>
	<path class="st47" d="M938,424.9l0.8-0.4c0.9-0.4,1.4-1.3,1.2-2.3l-0.1-0.9c-0.2-0.9-0.9-1.7-1.9-1.7l-0.9-0.1
		c-0.7-0.1-1.4-0.5-1.7-1.2c-0.3-0.5-0.5-1-0.8-1.5c-0.4-0.6-0.4-1.4,0-2.1l0.5-0.8c0.5-0.8,0.3-1.9-0.3-2.5l-0.7-0.6
		c-0.7-0.7-1.7-0.8-2.5-0.3l-0.8,0.5c-0.6,0.4-1.4,0.4-2.1,0c-1.3-0.8-2.7-1.3-4.2-1.7c-0.7-0.2-1.3-0.8-1.5-1.5l-0.2-1
		c-0.2-1-1.1-1.6-2.1-1.6h-0.9c-1-0.1-1.9,0.6-2.1,1.6l-0.3,1c-0.2,0.7-0.7,1.3-1.5,1.5c-0.5,0.1-1,0.3-1.5,0.5
		c-0.7,0.3-1.5,0.1-2-0.4l-0.8-0.7c-0.7-0.6-1.8-0.7-2.5-0.1l-0.7,0.5c-0.8,0.5-1.2,1.6-0.8,2.5l0.4,1c0.3,0.7,0.1,1.5-0.3,2.1
		c-0.3,0.4-0.6,0.8-0.9,1.2c-0.4,0.6-1.2,1-1.9,0.9l-1-0.1c-1-0.1-1.9,0.4-2.2,1.4l-0.3,0.9c-0.3,0.9,0,1.9,0.8,2.4l1,0.7
		c0.6,0.4,0.9,1.2,0.9,1.9c-0.1,0.5-0.1,1.1-0.1,1.6l0,0c0,0.7-0.4,1.4-1,1.8l-1,0.5c-0.8,0.5-1.3,1.4-1,2.4l0.2,0.9
		c0.2,0.9,1.1,1.6,2.1,1.5h1c0.7,0,1.4,0.4,1.8,1c0.3,0.5,0.6,1,0.9,1.4c0.4,0.6,0.5,1.4,0.2,2.1l-0.4,0.9c-0.4,0.9-0.2,1.9,0.5,2.5
		l0.7,0.6c0.7,0.6,1.8,0.7,2.6,0.1l0.7-0.5c0.6-0.4,1.3-0.5,2-0.2c0.5,0.3,1.1,0.5,1.6,0.7c0.7,0.3,1.2,0.9,1.3,1.6l0.1,0.9
		c0.2,0.9,0.9,1.7,1.9,1.7l0.9,0.1c0.9,0.1,1.8-0.5,2.1-1.4l0.3-0.8c0.2-0.7,0.9-1.2,1.6-1.4c0.6-0.1,1.2-0.2,1.7-0.4
		c0.7-0.2,1.5,0,2,0.5l0.6,0.6c0.7,0.7,1.7,0.8,2.5,0.3l0.8-0.5c0.9-0.5,1.3-1.5,1-2.4l-0.2-0.8c-0.2-0.7,0-1.5,0.5-2.1
		c0.4-0.4,0.8-0.9,1.2-1.3c0.5-0.6,1.3-0.9,2-0.7l0.8,0.2c0.9,0.2,1.9-0.3,2.3-1.2l0.4-0.8c0.4-0.9,0.2-1.9-0.6-2.5l-0.6-0.5
		c-0.6-0.4-0.9-1.2-0.8-1.9c0.1-0.6,0.2-1.2,0.2-1.9C936.9,425.8,937.3,425.2,938,424.9z M925.6,425.5c0,3-2.4,5.4-5.4,5.5
		c-3,0-5.4-2.4-5.4-5.4c0-3,2.4-5.4,5.4-5.5c0,0,0,0,0,0l0,0C923.1,420,925.6,422.4,925.6,425.5L925.6,425.5z"/>
	<path class="st52" d="M870.6,458.6c-0.8,0.9-1.7,1.7-2.7,2.5c-2.6,2.5-4.6,5.6-5.7,9.1c-0.6,1.6-0.6,3.3,0,4.9c1.2,3,5,6,8.1,4.1"
		/>
	<path class="st52" d="M870.4,453.3c-2.9-0.5-5.8,1.2-7.8,3.4s-3.4,4.9-5.2,7.2"/>
	<path class="st52" d="M870.1,483.4c-3.9,0.8-7.9,0.3-11.6-1.2c-2.3-1.2-4.5-2.8-6.4-4.5l-7.6-6.3c-1.2-1-2.6-2.5-2.1-4
		c0,0,12.7-66.9,14.7-74.2c2.3-8.4,11.6-14,11.6-14"/>
	<path class="st52" d="M965.4,459.3c3.3,2.5,5.8,5.8,7.2,9.6c1.1,3.6,1.9,7.2,2.3,10.9c-2,1.1-6,4-9.5,4"/>
	<path class="st52" d="M965.8,453.8c3.1-0.8,6.1,1.3,8.5,3.5c2.3,2.2,4.7,4.7,7.9,5"/>
	<path class="st52" d="M966.4,488.6c6-0.6,11.4-3.9,15.7-8.1s7.6-9.2,10.9-14.2c2.7-4.1,5.4-8.2,6.5-12.9c0,0-10.5-34.8-16.4-51
		c-6.1-16.8-12.7-21.1-12.7-21.1"/>
	<path class="st52" d="M965.8,453.8c5.4-4.6,13.8-0.9,19.6,2.2"/>
	<rect x="870.6" y="435.1" class="st5" width="94.8" height="54.5"/>
	<rect x="870.1" y="489.6" class="st47" width="95.7" height="2.9"/>
	<polygon class="st47" points="870.1,489.6 965.4,435.1 965.8,489.6 	"/>
	<polygon class="st48" points="870.1,489.6 965.4,435.1 965.8,489.6 	"/>
	<circle class="st47" cx="919.3" cy="461.5" r="8.1"/>
	<rect x="870.6" y="435.1" class="st52" width="94.8" height="54.5"/>
	<path class="st52" d="M894.3,324.4c0,0,2.1,19,4.7,22.4s11.1,15.8,20.4,15.6c9.2-0.2,15.3-12.1,16.8-17.2c1.9-6.4,3-13.1,3.4-19.8"
		/>
	<path class="st52" d="M937.1,343.3c0,0,6.8-3.5,2.4-12.5"/>
</g>
</svg>
